<svg xmlns="http://www.w3.org/2000/svg" xmlns:xlink="http://www.w3.org/1999/xlink" width="500" zoomAndPan="magnify" viewBox="0 0 375 374.999991" height="500" preserveAspectRatio="xMidYMid meet" version="1.0"><defs><clipPath id="205b6297ab"><path d="M 365 209 L 374.886719 209 L 374.886719 220 L 365 220 Z M 365 209 " clip-rule="nonzero"/></clipPath><clipPath id="35e4cfb545"><path d="M 199 26.355469 L 209 26.355469 L 209 37 L 199 37 Z M 199 26.355469 " clip-rule="nonzero"/></clipPath><clipPath id="661382bc77"><path d="M 182.886719 112 L 287 112 L 287 320 L 182.886719 320 Z M 182.886719 112 " clip-rule="nonzero"/></clipPath><clipPath id="1b9c9f26ca"><path d="M 93.835938 187 L 217 187 L 217 261 L 93.835938 261 Z M 93.835938 187 " clip-rule="nonzero"/></clipPath><clipPath id="f827c98170"><path d="M 157 183.8125 L 271.585938 183.8125 L 271.585938 236 L 157 236 Z M 157 183.8125 " clip-rule="nonzero"/></clipPath><clipPath id="ded9248567"><path d="M 80 112 L 183 112 L 183 320 L 80 320 Z M 80 112 " clip-rule="nonzero"/></clipPath><clipPath id="6acf862352"><path d="M 83.453125 117.015625 L 282.949219 117.015625 L 282.949219 315.671875 L 83.453125 315.671875 Z M 83.453125 117.015625 " clip-rule="nonzero"/></clipPath><clipPath id="9ace6f0f4d"><path d="M 183.035156 117.015625 C 128.039062 117.015625 83.453125 161.484375 83.453125 216.34375 C 83.453125 271.199219 128.039062 315.671875 183.035156 315.671875 C 238.035156 315.671875 282.621094 271.199219 282.621094 216.34375 C 282.621094 161.484375 238.035156 117.015625 183.035156 117.015625 Z M 183.035156 117.015625 " clip-rule="nonzero"/></clipPath><clipPath id="17db7693f1"><path d="M 83.449219 117.015625 L 283 117.015625 L 283 316 L 83.449219 316 Z M 83.449219 117.015625 " clip-rule="nonzero"/></clipPath><clipPath id="d4d6b1111e"><path d="M 182 319 L 184 319 L 184 321.015625 L 182 321.015625 Z M 182 319 " clip-rule="nonzero"/></clipPath><clipPath id="3591f1b6fa"><path d="M 184 213 L 287.449219 213 L 287.449219 321.015625 L 184 321.015625 Z M 184 213 " clip-rule="nonzero"/></clipPath><clipPath id="1424cfe18d"><path d="M 285 212 L 287.449219 212 L 287.449219 213 L 285 213 Z M 285 212 " clip-rule="nonzero"/></clipPath></defs><rect x="-37.5" width="450" fill="#ffffff" y="-37.499999" height="449.999989" fill-opacity="1"/><rect x="-37.5" width="450" fill="#ffffff" y="-37.499999" height="449.999989" fill-opacity="1"/><path fill="#38b6ff" d="M 333.214844 214.683594 C 333.214844 214.683594 333.171875 214.683594 333.152344 214.683594 L 286.628906 212.570312 C 285.859375 212.535156 285.269531 211.886719 285.304688 211.125 C 285.34375 210.359375 285.988281 209.765625 286.753906 209.800781 L 333.273438 211.914062 C 334.042969 211.949219 334.632812 212.597656 334.597656 213.359375 C 334.566406 214.105469 333.949219 214.683594 333.210938 214.683594 Z M 333.214844 214.683594 " fill-opacity="1" fill-rule="nonzero"/><path fill="#38b6ff" d="M 332.765625 217.96875 C 335.355469 218.085938 337.550781 216.082031 337.667969 213.496094 C 337.78125 210.90625 335.78125 208.710938 333.191406 208.59375 C 330.605469 208.480469 328.40625 210.480469 328.292969 213.070312 C 328.175781 215.65625 330.179688 217.851562 332.765625 217.96875 Z M 332.765625 217.96875 " fill-opacity="1" fill-rule="nonzero"/><path fill="#38b6ff" d="M 356.011719 224.703125 L 355.988281 224.703125 L 285.375 223.566406 C 284.609375 223.550781 283.996094 222.925781 284.011719 222.15625 C 284.027344 221.398438 284.640625 220.792969 285.398438 220.792969 L 285.421875 220.792969 L 356.035156 221.929688 C 356.800781 221.945312 357.414062 222.574219 357.398438 223.339844 C 357.382812 224.097656 356.769531 224.703125 356.011719 224.703125 Z M 356.011719 224.703125 " fill-opacity="1" fill-rule="nonzero"/><path fill="#38b6ff" d="M 359.84375 220.980469 C 360 221.25 360.125 221.527344 360.222656 221.820312 C 360.320312 222.113281 360.386719 222.410156 360.425781 222.71875 C 360.46875 223.023438 360.476562 223.328125 360.453125 223.636719 C 360.433594 223.945312 360.382812 224.246094 360.300781 224.542969 C 360.222656 224.839844 360.113281 225.128906 359.976562 225.402344 C 359.839844 225.679688 359.675781 225.9375 359.488281 226.183594 C 359.296875 226.425781 359.089844 226.648438 358.855469 226.851562 C 358.625 227.054688 358.375 227.230469 358.105469 227.386719 C 357.839844 227.539062 357.558594 227.664062 357.269531 227.761719 C 356.976562 227.859375 356.675781 227.929688 356.371094 227.96875 C 356.066406 228.007812 355.757812 228.015625 355.453125 227.996094 C 355.144531 227.972656 354.84375 227.921875 354.546875 227.84375 C 354.246094 227.761719 353.960938 227.652344 353.683594 227.515625 C 353.410156 227.378906 353.148438 227.214844 352.90625 227.027344 C 352.664062 226.839844 352.4375 226.628906 352.238281 226.394531 C 352.035156 226.164062 351.855469 225.914062 351.703125 225.648438 C 351.550781 225.378906 351.425781 225.101562 351.328125 224.808594 C 351.230469 224.515625 351.160156 224.21875 351.121094 223.910156 C 351.082031 223.605469 351.074219 223.300781 351.09375 222.992188 C 351.113281 222.683594 351.164062 222.382812 351.246094 222.085938 C 351.328125 221.789062 351.4375 221.5 351.574219 221.226562 C 351.710938 220.949219 351.875 220.691406 352.0625 220.445312 C 352.25 220.203125 352.460938 219.980469 352.691406 219.777344 C 352.925781 219.574219 353.175781 219.398438 353.441406 219.242188 C 353.710938 219.089844 353.988281 218.964844 354.28125 218.867188 C 354.574219 218.769531 354.871094 218.699219 355.175781 218.660156 C 355.484375 218.621094 355.789062 218.613281 356.097656 218.632812 C 356.402344 218.65625 356.707031 218.707031 357.003906 218.785156 C 357.300781 218.867188 357.585938 218.976562 357.863281 219.113281 C 358.140625 219.25 358.398438 219.414062 358.644531 219.601562 C 358.886719 219.789062 359.109375 220 359.3125 220.234375 C 359.515625 220.464844 359.691406 220.714844 359.84375 220.980469 Z M 359.84375 220.980469 " fill-opacity="1" fill-rule="nonzero"/><path fill="#38b6ff" d="M 338.71875 237.132812 C 338.71875 237.132812 338.691406 237.132812 338.679688 237.132812 L 282.957031 235.46875 C 282.191406 235.445312 281.589844 234.808594 281.613281 234.039062 C 281.636719 233.292969 282.25 232.695312 283 232.695312 C 283.011719 232.695312 283.027344 232.695312 283.042969 232.695312 L 338.761719 234.359375 C 339.527344 234.382812 340.128906 235.019531 340.105469 235.789062 C 340.082031 236.535156 339.46875 237.132812 338.71875 237.132812 Z M 338.71875 237.132812 " fill-opacity="1" fill-rule="nonzero"/><path fill="#38b6ff" d="M 338.347656 240.429688 C 340.933594 240.507812 343.097656 238.46875 343.175781 235.878906 C 343.253906 233.292969 341.214844 231.128906 338.628906 231.050781 C 336.039062 230.972656 333.875 233.007812 333.796875 235.597656 C 333.71875 238.1875 335.757812 240.351562 338.347656 240.429688 Z M 338.347656 240.429688 " fill-opacity="1" fill-rule="nonzero"/><path fill="#38b6ff" d="M 335.246094 215.648438 C 334.824219 215.648438 334.402344 215.453125 334.128906 215.089844 C 333.671875 214.476562 333.796875 213.605469 334.414062 213.148438 L 367.386719 188.539062 C 368.003906 188.082031 368.871094 188.207031 369.328125 188.820312 C 369.785156 189.4375 369.660156 190.304688 369.046875 190.761719 L 336.070312 215.371094 C 335.820312 215.554688 335.53125 215.648438 335.246094 215.648438 Z M 335.246094 215.648438 " fill-opacity="1" fill-rule="nonzero"/><path fill="#38b6ff" d="M 370.835938 193.554688 C 372.910156 192.007812 373.339844 189.066406 371.789062 186.988281 C 370.238281 184.910156 367.300781 184.480469 365.21875 186.035156 C 363.144531 187.582031 362.714844 190.523438 364.265625 192.601562 C 365.816406 194.675781 368.753906 195.109375 370.835938 193.554688 Z M 370.835938 193.554688 " fill-opacity="1" fill-rule="nonzero"/><path fill="#38b6ff" d="M 357.835938 225 C 357.421875 225 357.011719 224.816406 356.738281 224.457031 C 356.269531 223.851562 356.382812 222.980469 356.988281 222.511719 L 369.039062 213.203125 C 369.644531 212.738281 370.515625 212.847656 370.984375 213.453125 C 371.449219 214.058594 371.339844 214.933594 370.734375 215.398438 L 358.683594 224.707031 C 358.429688 224.902344 358.132812 225 357.835938 225 Z M 357.835938 225 " fill-opacity="1" fill-rule="nonzero"/><g clip-path="url(#205b6297ab)"><path fill="#38b6ff" d="M 372.574219 218.160156 C 374.625 216.574219 375 213.628906 373.417969 211.578125 C 371.832031 209.523438 368.890625 209.148438 366.835938 210.730469 C 364.785156 212.316406 364.410156 215.261719 365.992188 217.3125 C 367.570312 219.363281 370.519531 219.738281 372.574219 218.160156 Z M 372.574219 218.160156 " fill-opacity="1" fill-rule="nonzero"/></g><path fill="#38b6ff" d="M 368.886719 251.203125 C 368.675781 251.203125 368.464844 251.15625 368.265625 251.054688 L 339.964844 236.902344 C 339.28125 236.558594 339.003906 235.726562 339.34375 235.039062 C 339.6875 234.355469 340.519531 234.078125 341.207031 234.417969 L 369.507812 248.574219 C 370.191406 248.914062 370.46875 249.746094 370.128906 250.433594 C 369.882812 250.921875 369.394531 251.203125 368.886719 251.203125 Z M 368.886719 251.203125 " fill-opacity="1" fill-rule="nonzero"/><path fill="#38b6ff" d="M 366.578125 253.90625 C 368.894531 255.066406 371.714844 254.125 372.875 251.808594 C 374.035156 249.492188 373.089844 246.671875 370.773438 245.511719 C 368.460938 244.351562 365.640625 245.296875 364.480469 247.609375 C 363.320312 249.925781 364.261719 252.746094 366.578125 253.90625 Z M 366.578125 253.90625 " fill-opacity="1" fill-rule="nonzero"/><path fill="#38b6ff" d="M 237.609375 129.828125 L 236.328125 129.828125 C 235.5625 129.828125 234.941406 129.207031 234.941406 128.441406 C 234.941406 127.675781 235.5625 127.054688 236.328125 127.054688 L 236.464844 127.054688 L 286.9375 76.582031 C 287.476562 76.039062 288.355469 76.039062 288.898438 76.582031 C 289.4375 77.121094 289.4375 78 288.898438 78.539062 Z M 237.609375 129.828125 " fill-opacity="1" fill-rule="nonzero"/><path fill="#38b6ff" d="M 291.066406 81.046875 C 292.894531 79.214844 292.894531 76.242188 291.066406 74.40625 C 289.234375 72.578125 286.261719 72.578125 284.429688 74.40625 C 282.597656 76.238281 282.597656 79.210938 284.429688 81.046875 C 286.257812 82.875 289.230469 82.875 291.066406 81.046875 Z M 291.066406 81.046875 " fill-opacity="1" fill-rule="nonzero"/><path fill="#38b6ff" d="M 245.402344 136.753906 C 245.046875 136.753906 244.691406 136.617188 244.421875 136.34375 C 243.882812 135.804688 243.882812 134.925781 244.421875 134.386719 L 274.90625 103.902344 C 275.445312 103.363281 276.324219 103.363281 276.867188 103.902344 C 277.40625 104.441406 277.40625 105.320312 276.867188 105.863281 L 246.382812 136.34375 C 246.109375 136.617188 245.757812 136.753906 245.402344 136.753906 Z M 245.402344 136.753906 " fill-opacity="1" fill-rule="nonzero"/><path fill="#38b6ff" d="M 279.039062 108.367188 C 280.867188 106.535156 280.867188 103.566406 279.039062 101.730469 C 277.207031 99.894531 274.234375 99.898438 272.402344 101.730469 C 270.566406 103.558594 270.570312 106.53125 272.402344 108.367188 C 274.230469 110.203125 277.203125 110.199219 279.039062 108.367188 Z M 279.039062 108.367188 " fill-opacity="1" fill-rule="nonzero"/><path fill="#38b6ff" d="M 226.207031 124.675781 C 225.824219 124.675781 225.433594 124.511719 225.160156 124.203125 C 224.65625 123.625 224.71875 122.75 225.292969 122.246094 L 230.921875 117.320312 L 256.0625 92.179688 C 256.601562 91.640625 257.480469 91.640625 258.019531 92.179688 C 258.5625 92.722656 258.5625 93.597656 258.019531 94.140625 L 232.785156 119.371094 L 227.117188 124.328125 C 226.851562 124.558594 226.53125 124.667969 226.207031 124.667969 Z M 226.207031 124.675781 " fill-opacity="1" fill-rule="nonzero"/><path fill="#38b6ff" d="M 260.195312 96.644531 C 262.023438 94.816406 262.023438 91.84375 260.195312 90.007812 C 258.363281 88.171875 255.390625 88.175781 253.554688 90.007812 C 251.722656 91.839844 251.726562 94.808594 253.554688 96.644531 C 255.386719 98.480469 258.359375 98.476562 260.195312 96.644531 Z M 260.195312 96.644531 " fill-opacity="1" fill-rule="nonzero"/><path fill="#38b6ff" d="M 258.101562 92.347656 C 257.332031 92.347656 256.714844 91.726562 256.714844 90.960938 L 256.714844 68.472656 C 256.714844 67.707031 257.332031 67.085938 258.101562 67.085938 C 258.867188 67.085938 259.484375 67.707031 259.484375 68.472656 L 259.484375 90.960938 C 259.484375 91.726562 258.867188 92.347656 258.101562 92.347656 Z M 258.101562 92.347656 " fill-opacity="1" fill-rule="nonzero"/><path fill="#38b6ff" d="M 262.792969 68.707031 C 262.792969 66.117188 260.6875 64.015625 258.101562 64.015625 C 255.511719 64.015625 253.40625 66.121094 253.40625 68.707031 C 253.40625 71.296875 255.511719 73.398438 258.101562 73.398438 C 260.6875 73.398438 262.792969 71.296875 262.792969 68.707031 Z M 262.792969 68.707031 " fill-opacity="1" fill-rule="nonzero"/><path fill="#38b6ff" d="M 288.667969 75.511719 C 287.898438 75.511719 287.28125 74.894531 287.28125 74.125 L 287.28125 57.8125 C 287.28125 57.046875 287.898438 56.425781 288.667969 56.425781 C 289.433594 56.425781 290.054688 57.046875 290.054688 57.8125 L 290.054688 74.125 C 290.054688 74.894531 289.433594 75.511719 288.667969 75.511719 Z M 288.667969 75.511719 " fill-opacity="1" fill-rule="nonzero"/><path fill="#38b6ff" d="M 293.359375 58.046875 C 293.359375 55.453125 291.253906 53.355469 288.667969 53.355469 C 286.078125 53.355469 283.976562 55.457031 283.976562 58.046875 C 283.976562 60.632812 286.078125 62.738281 288.667969 62.738281 C 291.253906 62.738281 293.359375 60.632812 293.359375 58.046875 Z M 293.359375 58.046875 " fill-opacity="1" fill-rule="nonzero"/><path fill="#38b6ff" d="M 285.3125 113.320312 C 284.953125 113.320312 284.597656 113.1875 284.332031 112.914062 L 277.25 105.835938 C 276.707031 105.292969 276.707031 104.414062 277.25 103.875 C 277.789062 103.332031 278.667969 103.332031 279.210938 103.875 L 286.289062 110.957031 C 286.832031 111.496094 286.832031 112.375 286.289062 112.914062 C 286.019531 113.1875 285.667969 113.320312 285.3125 113.320312 Z M 285.3125 113.320312 " fill-opacity="1" fill-rule="nonzero"/><path fill="#38b6ff" d="M 281.824219 115.089844 C 283.65625 116.917969 286.628906 116.917969 288.464844 115.089844 C 290.292969 113.257812 290.292969 110.285156 288.464844 108.449219 C 286.632812 106.621094 283.660156 106.621094 281.824219 108.449219 C 279.996094 110.28125 279.996094 113.253906 281.824219 115.089844 Z M 281.824219 115.089844 " fill-opacity="1" fill-rule="nonzero"/><path fill="#38b6ff" d="M 186.613281 113.589844 C 185.84375 113.589844 185.226562 112.972656 185.226562 112.203125 L 185.226562 48.46875 L 203.164062 30.527344 C 203.707031 29.988281 204.582031 29.988281 205.125 30.527344 C 205.664062 31.070312 205.664062 31.949219 205.125 32.488281 L 188 49.613281 L 188 112.203125 C 188 112.972656 187.378906 113.589844 186.613281 113.589844 Z M 186.613281 113.589844 " fill-opacity="1" fill-rule="nonzero"/><g clip-path="url(#35e4cfb545)"><path fill="#38b6ff" d="M 207.296875 34.996094 C 209.128906 33.164062 209.128906 30.191406 207.296875 28.355469 C 205.464844 26.527344 202.496094 26.527344 200.660156 28.355469 C 198.828125 30.1875 198.828125 33.160156 200.660156 34.996094 C 202.488281 36.824219 205.460938 36.824219 207.296875 34.996094 Z M 207.296875 34.996094 " fill-opacity="1" fill-rule="nonzero"/></g><path fill="#38b6ff" d="M 204.804688 356.855469 C 204.039062 356.855469 203.417969 356.238281 203.417969 355.46875 L 203.417969 314.167969 C 203.417969 313.398438 204.039062 312.78125 204.804688 312.78125 C 205.574219 312.78125 206.191406 313.398438 206.191406 314.167969 L 206.191406 355.46875 C 206.191406 356.238281 205.574219 356.855469 204.804688 356.855469 Z M 204.804688 356.855469 " fill-opacity="1" fill-rule="nonzero"/><path fill="#38b6ff" d="M 200.113281 355.234375 C 200.113281 357.828125 202.21875 359.925781 204.804688 359.925781 C 207.394531 359.925781 209.496094 357.824219 209.496094 355.234375 C 209.496094 352.644531 207.394531 350.542969 204.804688 350.542969 C 202.21875 350.542969 200.113281 352.644531 200.113281 355.234375 Z M 200.113281 355.234375 " fill-opacity="1" fill-rule="nonzero"/><path fill="#38b6ff" d="M 211.886719 344.40625 C 211.121094 344.40625 210.5 343.785156 210.5 343.019531 L 210.5 312.78125 C 210.5 312.011719 211.121094 311.394531 211.886719 311.394531 C 212.652344 311.394531 213.273438 312.011719 213.273438 312.78125 L 213.273438 343.019531 C 213.273438 343.785156 212.652344 344.40625 211.886719 344.40625 Z M 211.886719 344.40625 " fill-opacity="1" fill-rule="nonzero"/><path fill="#38b6ff" d="M 214.355469 338.8125 C 214.617188 338.972656 214.859375 339.160156 215.085938 339.367188 C 215.3125 339.578125 215.515625 339.808594 215.695312 340.058594 C 215.875 340.308594 216.027344 340.574219 216.15625 340.855469 C 216.285156 341.132812 216.382812 341.425781 216.453125 341.722656 C 216.523438 342.023438 216.566406 342.328125 216.578125 342.636719 C 216.585938 342.941406 216.566406 343.25 216.519531 343.554688 C 216.46875 343.855469 216.390625 344.152344 216.285156 344.441406 C 216.175781 344.730469 216.039062 345.007812 215.878906 345.269531 C 215.71875 345.53125 215.53125 345.773438 215.320312 346 C 215.109375 346.226562 214.882812 346.425781 214.632812 346.609375 C 214.382812 346.789062 214.117188 346.941406 213.835938 347.070312 C 213.554688 347.199219 213.265625 347.296875 212.964844 347.367188 C 212.664062 347.4375 212.363281 347.480469 212.054688 347.488281 C 211.746094 347.5 211.441406 347.480469 211.136719 347.433594 C 210.832031 347.382812 210.535156 347.304688 210.246094 347.195312 C 209.957031 347.089844 209.683594 346.953125 209.421875 346.792969 C 209.160156 346.628906 208.914062 346.445312 208.691406 346.234375 C 208.464844 346.023438 208.261719 345.792969 208.082031 345.542969 C 207.902344 345.292969 207.746094 345.03125 207.621094 344.75 C 207.492188 344.46875 207.394531 344.179688 207.320312 343.878906 C 207.25 343.578125 207.210938 343.277344 207.199219 342.96875 C 207.1875 342.660156 207.207031 342.355469 207.257812 342.050781 C 207.304688 341.746094 207.386719 341.449219 207.492188 341.160156 C 207.601562 340.871094 207.734375 340.597656 207.898438 340.335938 C 208.058594 340.074219 208.246094 339.828125 208.457031 339.605469 C 208.664062 339.378906 208.894531 339.175781 209.144531 338.996094 C 209.394531 338.816406 209.660156 338.660156 209.941406 338.535156 C 210.21875 338.40625 210.511719 338.304688 210.808594 338.234375 C 211.109375 338.164062 211.414062 338.125 211.722656 338.113281 C 212.03125 338.101562 212.335938 338.121094 212.640625 338.171875 C 212.945312 338.21875 213.238281 338.296875 213.527344 338.40625 C 213.816406 338.515625 214.09375 338.648438 214.355469 338.8125 Z M 214.355469 338.8125 " fill-opacity="1" fill-rule="nonzero"/><path fill="#38b6ff" d="M 221.308594 370.289062 C 220.539062 370.289062 219.921875 369.671875 219.921875 368.902344 L 219.921875 309.757812 C 219.921875 308.988281 220.539062 308.371094 221.308594 308.371094 C 222.074219 308.371094 222.695312 308.988281 222.695312 309.757812 L 222.695312 368.902344 C 222.695312 369.671875 222.074219 370.289062 221.308594 370.289062 Z M 221.308594 370.289062 " fill-opacity="1" fill-rule="nonzero"/><path fill="#38b6ff" d="M 225.644531 366.871094 C 225.761719 367.15625 225.851562 367.449219 225.914062 367.753906 C 225.972656 368.054688 226.003906 368.359375 226.003906 368.667969 C 226.003906 368.976562 225.972656 369.28125 225.914062 369.582031 C 225.851562 369.886719 225.761719 370.179688 225.644531 370.464844 C 225.527344 370.746094 225.382812 371.019531 225.210938 371.273438 C 225.039062 371.53125 224.847656 371.765625 224.628906 371.984375 C 224.410156 372.203125 224.171875 372.398438 223.917969 372.570312 C 223.660156 372.738281 223.390625 372.882812 223.105469 373.003906 C 222.820312 373.121094 222.527344 373.210938 222.226562 373.269531 C 221.925781 373.328125 221.617188 373.359375 221.3125 373.359375 C 221.003906 373.359375 220.699219 373.328125 220.394531 373.269531 C 220.09375 373.210938 219.800781 373.121094 219.515625 373.003906 C 219.230469 372.882812 218.960938 372.738281 218.703125 372.570312 C 218.449219 372.398438 218.210938 372.203125 217.992188 371.984375 C 217.777344 371.765625 217.582031 371.53125 217.410156 371.273438 C 217.238281 371.019531 217.09375 370.746094 216.976562 370.464844 C 216.859375 370.179688 216.769531 369.886719 216.710938 369.582031 C 216.648438 369.28125 216.621094 368.976562 216.621094 368.667969 C 216.621094 368.359375 216.648438 368.054688 216.710938 367.753906 C 216.769531 367.449219 216.859375 367.15625 216.976562 366.871094 C 217.09375 366.589844 217.238281 366.316406 217.410156 366.0625 C 217.582031 365.804688 217.777344 365.570312 217.992188 365.351562 C 218.210938 365.132812 218.449219 364.9375 218.703125 364.765625 C 218.960938 364.597656 219.230469 364.453125 219.515625 364.332031 C 219.800781 364.214844 220.09375 364.125 220.394531 364.066406 C 220.699219 364.007812 221.003906 363.976562 221.3125 363.976562 C 221.617188 363.976562 221.925781 364.007812 222.226562 364.066406 C 222.527344 364.125 222.820312 364.214844 223.105469 364.332031 C 223.390625 364.453125 223.660156 364.597656 223.917969 364.765625 C 224.171875 364.9375 224.410156 365.132812 224.628906 365.351562 C 224.847656 365.570312 225.039062 365.804688 225.210938 366.0625 C 225.382812 366.316406 225.527344 366.589844 225.644531 366.871094 Z M 225.644531 366.871094 " fill-opacity="1" fill-rule="nonzero"/><path fill="#38b6ff" d="M 313.28125 332.363281 C 312.921875 332.363281 312.566406 332.230469 312.300781 331.957031 L 261.339844 280.996094 C 260.800781 280.457031 260.800781 279.578125 261.339844 279.039062 C 261.878906 278.496094 262.757812 278.496094 263.300781 279.039062 L 314.257812 329.996094 C 314.800781 330.539062 314.800781 331.417969 314.257812 331.957031 C 313.988281 332.230469 313.636719 332.363281 313.28125 332.363281 Z M 313.28125 332.363281 " fill-opacity="1" fill-rule="nonzero"/><path fill="#38b6ff" d="M 309.792969 334.128906 C 311.625 335.960938 314.597656 335.960938 316.433594 334.128906 C 318.265625 332.300781 318.261719 329.328125 316.433594 327.492188 C 314.601562 325.65625 311.628906 325.660156 309.792969 327.492188 C 307.960938 329.324219 307.964844 332.292969 309.792969 334.128906 Z M 309.792969 334.128906 " fill-opacity="1" fill-rule="nonzero"/><path fill="#38b6ff" d="M 310.234375 319.40625 C 309.878906 319.40625 309.523438 319.273438 309.253906 319 L 265.585938 275.335938 C 265.046875 274.792969 265.046875 273.917969 265.585938 273.375 C 266.128906 272.835938 267.007812 272.835938 267.546875 273.375 L 311.214844 317.042969 C 311.753906 317.582031 311.753906 318.460938 311.214844 319 C 310.941406 319.273438 310.589844 319.40625 310.234375 319.40625 Z M 310.234375 319.40625 " fill-opacity="1" fill-rule="nonzero"/><path fill="#38b6ff" d="M 306.753906 321.171875 C 308.582031 323.003906 311.554688 323.003906 313.390625 321.171875 C 315.226562 319.34375 315.222656 316.371094 313.390625 314.535156 C 311.558594 312.703125 308.589844 312.707031 306.753906 314.535156 C 304.917969 316.367188 304.921875 319.339844 306.753906 321.171875 Z M 306.753906 321.171875 " fill-opacity="1" fill-rule="nonzero"/><path fill="#38b6ff" d="M 304.082031 295.367188 C 303.726562 295.367188 303.371094 295.234375 303.101562 294.960938 L 272.148438 264.007812 C 271.605469 263.464844 271.605469 262.585938 272.148438 262.046875 C 272.6875 261.503906 273.566406 261.503906 274.105469 262.046875 L 305.0625 293 C 305.601562 293.542969 305.601562 294.421875 305.0625 294.960938 C 304.789062 295.234375 304.4375 295.367188 304.082031 295.367188 Z M 304.082031 295.367188 " fill-opacity="1" fill-rule="nonzero"/><path fill="#38b6ff" d="M 300.597656 297.132812 C 302.425781 298.964844 305.398438 298.964844 307.234375 297.132812 C 309.070312 295.304688 309.0625 292.332031 307.234375 290.496094 C 305.402344 288.660156 302.429688 288.664062 300.597656 290.496094 C 298.761719 292.328125 298.765625 295.296875 300.597656 297.132812 Z M 300.597656 297.132812 " fill-opacity="1" fill-rule="nonzero"/><path fill="#38b6ff" d="M 188.261719 357.675781 C 187.519531 357.675781 186.902344 357.089844 186.875 356.339844 C 186.847656 355.574219 187.449219 354.929688 188.210938 354.90625 L 203.9375 354.355469 C 204.722656 354.328125 205.347656 354.929688 205.371094 355.691406 C 205.398438 356.460938 204.796875 357.101562 204.035156 357.125 L 188.308594 357.675781 C 188.308594 357.675781 188.277344 357.675781 188.257812 357.675781 Z M 188.261719 357.675781 " fill-opacity="1" fill-rule="nonzero"/><path fill="#38b6ff" d="M 188.335938 351.589844 C 185.75 351.679688 183.71875 353.851562 183.8125 356.441406 C 183.902344 359.03125 186.078125 361.058594 188.664062 360.964844 C 191.253906 360.875 193.28125 358.703125 193.191406 356.113281 C 193.097656 353.523438 190.925781 351.496094 188.335938 351.589844 Z M 188.335938 351.589844 " fill-opacity="1" fill-rule="nonzero"/><path fill="#38b6ff" d="M 221.664062 373.164062 C 221.21875 373.164062 220.785156 372.953125 220.515625 372.558594 C 220.085938 371.925781 220.25 371.0625 220.882812 370.632812 L 234.894531 361.101562 C 235.53125 360.671875 236.394531 360.832031 236.824219 361.464844 C 237.253906 362.097656 237.089844 362.964844 236.457031 363.394531 L 222.445312 372.925781 C 222.203125 373.085938 221.933594 373.164062 221.667969 373.164062 Z M 221.664062 373.164062 " fill-opacity="1" fill-rule="nonzero"/><path fill="#38b6ff" d="M 238.121094 366.257812 C 240.265625 364.804688 240.820312 361.882812 239.367188 359.742188 C 237.910156 357.597656 234.988281 357.042969 232.847656 358.5 C 230.703125 359.953125 230.148438 362.875 231.605469 365.015625 C 233.0625 367.160156 235.980469 367.714844 238.121094 366.257812 Z M 238.121094 366.257812 " fill-opacity="1" fill-rule="nonzero"/><path fill="#38b6ff" d="M 307.46875 294.484375 C 307.027344 294.484375 306.597656 294.277344 306.328125 293.882812 C 305.894531 293.25 306.054688 292.390625 306.683594 291.957031 L 320.003906 282.800781 C 320.632812 282.367188 321.496094 282.527344 321.933594 283.15625 C 322.367188 283.789062 322.207031 284.648438 321.578125 285.082031 L 308.253906 294.238281 C 308.015625 294.40625 307.742188 294.484375 307.46875 294.484375 Z M 307.46875 294.484375 " fill-opacity="1" fill-rule="nonzero"/><path fill="#38b6ff" d="M 323.253906 287.941406 C 325.390625 286.46875 325.929688 283.550781 324.460938 281.414062 C 322.992188 279.277344 320.070312 278.738281 317.933594 280.207031 C 315.796875 281.675781 315.257812 284.597656 316.726562 286.734375 C 318.199219 288.871094 321.117188 289.410156 323.253906 287.941406 Z M 323.253906 287.941406 " fill-opacity="1" fill-rule="nonzero"/><path fill="#38b6ff" d="M 313.625 318.34375 C 313.308594 318.34375 312.984375 318.234375 312.726562 318.011719 C 312.140625 317.511719 312.078125 316.640625 312.574219 316.058594 L 322.417969 304.570312 C 322.917969 303.988281 323.789062 303.921875 324.371094 304.417969 C 324.957031 304.917969 325.019531 305.792969 324.527344 306.375 L 314.679688 317.859375 C 314.40625 318.179688 314.019531 318.34375 313.625 318.34375 Z M 313.625 318.34375 " fill-opacity="1" fill-rule="nonzero"/><path fill="#38b6ff" d="M 326.878906 308.703125 C 328.566406 306.734375 328.339844 303.769531 326.371094 302.089844 C 324.402344 300.402344 321.4375 300.628906 319.753906 302.597656 C 318.066406 304.566406 318.300781 307.527344 320.265625 309.210938 C 322.234375 310.898438 325.195312 310.671875 326.878906 308.703125 Z M 326.878906 308.703125 " fill-opacity="1" fill-rule="nonzero"/><path fill="#38b6ff" d="M 303.714844 344.53125 C 303.34375 344.53125 302.972656 344.382812 302.699219 344.085938 C 302.175781 343.527344 302.210938 342.648438 302.773438 342.125 L 314.375 331.351562 C 314.933594 330.828125 315.8125 330.863281 316.335938 331.425781 C 316.855469 331.984375 316.824219 332.863281 316.261719 333.386719 L 304.660156 344.160156 C 304.390625 344.410156 304.054688 344.53125 303.714844 344.53125 Z M 303.714844 344.53125 " fill-opacity="1" fill-rule="nonzero"/><path fill="#38b6ff" d="M 300.691406 339.546875 C 298.792969 341.308594 298.683594 344.28125 300.449219 346.179688 C 302.214844 348.078125 305.179688 348.191406 307.082031 346.425781 C 308.980469 344.664062 309.09375 341.691406 307.328125 339.792969 C 305.566406 337.890625 302.59375 337.78125 300.691406 339.546875 Z M 300.691406 339.546875 " fill-opacity="1" fill-rule="nonzero"/><g clip-path="url(#661382bc77)"><path fill="#38b6ff" d="M 183.429688 319.148438 C 155.855469 319.148438 129.941406 308.410156 110.441406 288.921875 C 90.945312 269.421875 80.214844 243.507812 80.214844 215.933594 C 80.214844 188.363281 90.953125 162.445312 110.441406 142.949219 C 129.933594 123.453125 155.855469 112.722656 183.429688 112.722656 C 211 112.722656 236.917969 123.457031 256.414062 142.949219 C 275.910156 162.445312 286.640625 188.363281 286.640625 215.933594 C 286.640625 243.507812 275.90625 269.421875 256.414062 288.921875 C 236.921875 308.417969 211 319.148438 183.429688 319.148438 Z M 183.429688 117.34375 C 129.066406 117.34375 84.835938 161.574219 84.835938 215.933594 C 84.835938 270.296875 129.066406 314.527344 183.429688 314.527344 C 237.789062 314.527344 282.019531 270.300781 282.019531 215.933594 C 282.019531 161.570312 237.792969 117.34375 183.429688 117.34375 Z M 183.429688 117.34375 " fill-opacity="1" fill-rule="nonzero"/></g><g clip-path="url(#1b9c9f26ca)"><path fill="#0f1035" d="M 93.835938 187.753906 L 140.878906 197.917969 C 143.042969 198.386719 145.300781 198.078125 147.253906 197.046875 C 161.714844 189.445312 179.332031 191.945312 184.496094 192.914062 C 184.851562 192.980469 184.863281 193.488281 184.507812 193.574219 L 166.867188 198.433594 C 166.761719 198.457031 166.679688 198.527344 166.636719 198.621094 L 161.503906 209.667969 C 161.503906 209.667969 159.105469 217.011719 159.105469 217.011719 L 166.019531 219.835938 L 173.144531 215.75 L 183.027344 208.054688 C 183.125 207.976562 183.257812 207.957031 183.371094 208.007812 L 191.039062 211.136719 C 191.101562 211.164062 191.152344 211.210938 191.1875 211.265625 L 199.988281 224.699219 C 200.019531 224.746094 200.058594 224.78125 200.113281 224.808594 L 207.207031 228.667969 C 207.207031 228.667969 207.226562 228.679688 207.234375 228.6875 L 215.425781 234.292969 C 215.875 234.597656 216.199219 235.054688 216.332031 235.582031 C 216.347656 235.644531 216.363281 235.707031 216.371094 235.769531 C 216.550781 236.824219 217.6875 245.492188 206.558594 243.554688 C 205.09375 243.300781 203.757812 244.480469 203.894531 245.957031 C 204.1875 249.226562 203.070312 253.589844 194.316406 251.90625 C 193.15625 251.683594 192.226562 252.832031 192.640625 253.9375 C 193.886719 257.25 194.117188 261.78125 182.878906 256.996094 C 181.929688 256.589844 181.070312 257.101562 180.878906 258.121094 C 180.652344 259.320312 179.316406 260.449219 174.738281 259.972656 C 173.171875 259.804688 171.652344 259.347656 170.242188 258.648438 C 164.238281 255.675781 145.890625 245.890625 132.699219 231.304688 C 131.347656 229.804688 129.535156 228.800781 127.542969 228.472656 L 93.835938 223.050781 Z M 93.835938 187.753906 " fill-opacity="1" fill-rule="nonzero"/></g><path fill="#65cae1" d="M 251.089844 205.554688 L 250.550781 205.804688 L 250.65625 206.039062 L 250.441406 206.273438 L 250.925781 206.707031 L 251.484375 206.089844 L 270.558594 197.355469 L 270.023438 196.175781 L 270.015625 196.09375 L 269.988281 196.09375 C 269.988281 196.09375 265.164062 185.390625 265.164062 185.390625 L 258.21875 197.691406 L 251.09375 205.554688 Z M 269.699219 197.039062 L 252.59375 204.871094 L 258.914062 197.890625 L 269.585938 196.792969 L 269.695312 197.039062 Z M 265.09375 186.828125 L 269.304688 196.167969 L 259.238281 197.203125 Z M 265.09375 186.828125 " fill-opacity="1" fill-rule="nonzero"/><path fill="#65cae1" d="M 250.457031 206.335938 L 240.339844 209.804688 L 239.765625 209.246094 L 240.210938 202.226562 L 240.574219 202.449219 L 246.753906 192.351562 L 251.863281 197.949219 L 253.367188 184.492188 L 246.082031 192.195312 L 239.632812 191.691406 L 222.773438 195.796875 L 211.765625 201.277344 L 203.128906 200.230469 L 201.835938 199.71875 L 186.308594 193.574219 L 186.308594 192.804688 L 185.144531 193.117188 L 184.84375 192.996094 L 185.007812 193.15625 L 166.808594 198.035156 L 166.621094 197.945312 L 166.542969 198.109375 L 165.84375 198.296875 L 165.835938 198.277344 L 165.550781 198.378906 L 165.203125 198.472656 L 165.257812 198.480469 L 165.222656 198.492188 L 165.722656 199.925781 L 161.449219 209.328125 L 161.027344 208.550781 L 159.140625 217.195312 L 167.660156 220.746094 L 166.882812 219.3125 L 173.664062 215.507812 L 173.636719 215.472656 L 183.226562 208.398438 L 178.648438 204.429688 L 185.527344 201.871094 L 183.976562 208.191406 L 190.625 211.25 L 189.945312 211.945312 L 190.976562 211.679688 L 200.128906 225.183594 C 200.207031 225.296875 207.410156 229.152344 207.410156 229.152344 L 216.226562 234.964844 L 233.851562 230.871094 L 233.707031 230.238281 L 233.382812 230.3125 L 233.4375 221.085938 L 245.984375 221.980469 L 240.210938 211.355469 L 260.355469 223.273438 L 250.460938 206.335938 Z M 258.527344 221.4375 L 240.269531 210.636719 L 240.449219 210.453125 L 250.1875 207.164062 L 258.53125 221.441406 Z M 232.730469 230.03125 L 222.515625 224.71875 L 232.789062 221.191406 Z M 231.539062 202.640625 L 232.722656 219.839844 L 224.914062 211.511719 L 224.90625 211.414062 L 231.539062 202.636719 Z M 217.445312 219.496094 L 209.578125 223.65625 L 209.363281 218.972656 Z M 213.066406 203.042969 L 224.132812 211.691406 L 218.246094 218.574219 Z M 231.976562 219.996094 L 218.785156 218.949219 L 224.613281 212.136719 Z M 210.492188 223.90625 L 218.238281 219.808594 L 221.105469 224.335938 Z M 221.132812 224.992188 L 216.332031 233.535156 L 209.925781 224.535156 L 221.132812 224.988281 Z M 221.828125 224.261719 L 218.878906 219.605469 L 232.28125 220.671875 Z M 224.816406 210.457031 L 223.984375 201.589844 L 224.09375 201.78125 L 224.6875 201.449219 L 231.101562 202.144531 L 224.816406 210.453125 Z M 223.304688 201.304688 L 224.203125 210.925781 L 213.238281 202.347656 L 223.300781 201.304688 Z M 216.859375 216.46875 L 210.71875 209.519531 L 211.9375 202.367188 Z M 217.382812 218.042969 L 217.65625 218.859375 L 209.328125 218.21875 L 209.308594 217.761719 L 210.574219 210.34375 L 217.386719 218.042969 Z M 208.714844 217.382812 L 203.480469 208.117188 L 202.894531 201.65625 L 210.023438 209.722656 L 208.714844 217.386719 Z M 202.164062 200.828125 C 202.164062 200.828125 202.8125 207.972656 202.8125 207.972656 L 192.019531 210.738281 L 201.570312 200.925781 L 202.160156 200.828125 Z M 208.300781 217.972656 L 198.371094 214.976562 L 203.121094 208.800781 Z M 208.246094 218.636719 L 200.617188 224.019531 L 198.289062 215.664062 L 198.195312 215.601562 L 208.246094 218.632812 Z M 208.71875 219.101562 L 208.933594 223.84375 L 208.625 223.832031 L 208.664062 223.886719 L 201.40625 224.25 L 208.714844 219.097656 Z M 209.367188 224.882812 L 215.78125 233.890625 L 207.96875 228.742188 L 209.363281 224.882812 Z M 221.820312 225.085938 L 232.324219 230.550781 L 216.714844 234.171875 L 221.816406 225.085938 Z M 232.207031 202.824219 L 239.164062 210.074219 L 233.324219 219.109375 Z M 232.613281 202.316406 L 239.558594 202.21875 L 239.148438 208.652344 Z M 252.507812 186.304688 L 251.375 196.449219 L 247.148438 191.816406 Z M 239.992188 192.917969 L 245.683594 192.855469 L 240.242188 201.746094 L 240.253906 201.5625 L 232.277344 201.675781 L 232.3125 201.628906 L 225.671875 200.910156 L 239.992188 192.921875 Z M 239.667969 192.351562 L 224.550781 200.785156 L 223.902344 200.714844 L 223.875 200.429688 L 223.835938 200.429688 C 223.835938 200.429688 222.917969 196.429688 222.917969 196.429688 Z M 223.1875 200.511719 L 212.28125 201.605469 L 222.304688 196.667969 L 223.1875 200.515625 Z M 210.164062 208.894531 L 203.082031 200.878906 L 211.296875 202.261719 Z M 201.347656 200.222656 L 201.25 200.316406 L 194.445312 201.460938 L 187.609375 194.785156 L 201.34375 200.222656 Z M 185.546875 193.679688 L 185.660156 193.789062 L 185.660156 200.964844 L 168.351562 198.289062 Z M 166.300781 198.632812 L 166.105469 199.058594 L 165.9375 198.574219 Z M 169.152344 209.492188 L 169.714844 209.4375 L 169.5625 208.996094 L 177.074219 205.367188 L 172.746094 214.277344 Z M 177.695312 204.082031 L 177.390625 204.199219 L 177.5625 204.347656 L 177.527344 204.417969 L 169.34375 208.375 L 166.414062 199.945312 L 166.929688 198.808594 L 177.734375 203.992188 L 177.691406 204.082031 Z M 166.027344 200.808594 L 168.757812 208.664062 L 168.589844 208.742188 L 168.304688 208.355469 L 168.203125 208.929688 L 162.074219 209.519531 L 166.03125 200.8125 Z M 159.886719 216.800781 L 161.28125 210.390625 L 166.203125 219.433594 L 159.890625 216.800781 Z M 161.914062 210.1875 L 168.085938 209.59375 L 166.507812 218.628906 L 161.917969 210.1875 Z M 167.214844 218.371094 L 168.683594 209.949219 L 172.695312 215.300781 L 167.214844 218.375 Z M 182.183594 208.351562 L 173.242188 214.945312 L 173.183594 214.863281 L 178.078125 204.792969 L 182.1875 208.351562 Z M 178.582031 203.753906 L 178.613281 203.691406 L 168.902344 199.035156 L 184.703125 201.476562 L 178.582031 203.757812 Z M 186.230469 201.710938 L 186.308594 201.722656 L 186.308594 201.382812 L 186.449219 200.824219 L 186.308594 200.875 L 186.308594 194.425781 L 193.441406 201.390625 L 186.554688 200.648438 L 190.964844 210.6875 L 184.734375 207.820312 Z M 193.902344 202.089844 L 191.300781 209.832031 L 187.605469 201.414062 L 193.90625 202.089844 Z M 194.585938 202.097656 L 200.484375 201.105469 L 191.984375 209.839844 L 194.585938 202.09375 Z M 191.996094 211.414062 L 202.328125 208.765625 L 197.441406 215.109375 L 192.054688 211.558594 L 191.992188 211.417969 Z M 197.726562 216.070312 L 199.816406 223.5625 L 192.324219 212.507812 Z M 208.800781 224.535156 L 207.40625 228.398438 L 201.398438 224.910156 Z M 244.839844 221.242188 L 233.4375 220.425781 L 233.4375 220.273438 C 233.4375 220.273438 233.40625 220.285156 233.40625 220.285156 L 233.398438 220.183594 L 239.332031 211.105469 L 244.839844 221.238281 Z M 240.136719 210.554688 L 240.171875 210.542969 L 240.257812 210.628906 Z M 240.136719 210.554688 " fill-opacity="1" fill-rule="nonzero"/><g clip-path="url(#f827c98170)"><path fill="#38b6ff" d="M 265.089844 184.78125 C 265.929688 184.78125 266.617188 185.460938 266.617188 186.304688 C 266.617188 187.148438 265.933594 187.828125 265.089844 187.828125 C 264.25 187.828125 263.566406 187.148438 263.566406 186.304688 C 263.566406 185.460938 264.25 184.78125 265.089844 184.78125 Z M 251.417969 185.398438 C 251.417969 186.238281 252.097656 186.921875 252.941406 186.921875 C 253.785156 186.921875 254.464844 186.242188 254.464844 185.398438 C 254.464844 184.554688 253.78125 183.875 252.9375 183.875 C 252.09375 183.875 251.410156 184.554688 251.410156 185.398438 Z M 257.007812 197.238281 C 257.007812 198.078125 257.6875 198.761719 258.53125 198.761719 C 259.375 198.761719 260.054688 198.082031 260.054688 197.238281 C 260.054688 196.394531 259.375 195.714844 258.53125 195.714844 C 257.6875 195.714844 257.007812 196.394531 257.007812 197.238281 Z M 250.136719 197.003906 C 250.136719 197.84375 250.816406 198.527344 251.660156 198.527344 C 252.503906 198.527344 253.1875 197.847656 253.1875 197.003906 C 253.1875 196.160156 252.503906 195.480469 251.660156 195.480469 C 250.816406 195.480469 250.136719 196.160156 250.136719 197.003906 Z M 245.296875 192.160156 C 245.296875 193 245.976562 193.6875 246.820312 193.6875 C 247.664062 193.6875 248.34375 193.003906 248.34375 192.160156 C 248.34375 191.316406 247.664062 190.636719 246.820312 190.636719 C 245.976562 190.636719 245.296875 191.316406 245.296875 192.160156 Z M 249.042969 206.6875 C 249.042969 207.527344 249.726562 208.210938 250.570312 208.210938 C 251.410156 208.210938 252.09375 207.53125 252.09375 206.6875 C 252.09375 205.84375 251.410156 205.164062 250.570312 205.164062 C 249.726562 205.164062 249.042969 205.84375 249.042969 206.6875 Z M 238.734375 202.078125 C 238.734375 202.917969 239.414062 203.605469 240.257812 203.605469 C 241.101562 203.605469 241.78125 202.921875 241.78125 202.078125 C 241.78125 201.234375 241.101562 200.554688 240.257812 200.554688 C 239.414062 200.554688 238.734375 201.234375 238.734375 202.078125 Z M 238.1875 192.007812 C 238.1875 192.847656 238.867188 193.53125 239.710938 193.53125 C 240.554688 193.53125 241.238281 192.851562 241.238281 192.007812 C 241.238281 191.164062 240.554688 190.484375 239.710938 190.484375 C 238.867188 190.484375 238.1875 191.164062 238.1875 192.007812 Z M 238.1875 210.277344 C 238.1875 211.117188 238.867188 211.804688 239.710938 211.804688 C 240.554688 211.804688 241.238281 211.121094 241.238281 210.277344 C 241.238281 209.4375 240.554688 208.753906 239.710938 208.753906 C 238.867188 208.753906 238.1875 209.4375 238.1875 210.277344 Z M 230.300781 202 C 230.300781 202.839844 230.980469 203.523438 231.824219 203.523438 C 232.667969 203.523438 233.351562 202.84375 233.351562 202 C 233.351562 201.15625 232.667969 200.476562 231.824219 200.476562 C 230.980469 200.476562 230.300781 201.15625 230.300781 202 Z M 223.078125 211.644531 C 223.078125 212.484375 223.761719 213.167969 224.605469 213.167969 C 225.445312 213.167969 226.128906 212.488281 226.128906 211.644531 C 226.128906 210.800781 225.445312 210.121094 224.605469 210.121094 C 223.761719 210.121094 223.078125 210.800781 223.078125 211.644531 Z M 222.414062 201.21875 C 222.414062 202.058594 223.09375 202.746094 223.9375 202.746094 C 224.78125 202.746094 225.464844 202.0625 225.464844 201.21875 C 225.464844 200.378906 224.78125 199.695312 223.9375 199.695312 C 223.09375 199.695312 222.414062 200.378906 222.414062 201.21875 Z M 231.238281 230.347656 C 231.238281 231.1875 231.921875 231.875 232.765625 231.875 C 233.605469 231.875 234.289062 231.191406 234.289062 230.347656 C 234.289062 229.503906 233.605469 228.824219 232.765625 228.824219 C 231.921875 228.824219 231.238281 229.503906 231.238281 230.347656 Z M 243.890625 221.609375 C 243.890625 222.449219 244.570312 223.136719 245.414062 223.136719 C 246.257812 223.136719 246.9375 222.453125 246.9375 221.609375 C 246.9375 220.765625 246.257812 220.085938 245.414062 220.085938 C 244.570312 220.085938 243.890625 220.765625 243.890625 221.609375 Z M 214.839844 234.140625 C 214.839844 234.980469 215.519531 235.667969 216.363281 235.667969 C 217.207031 235.667969 217.890625 234.984375 217.890625 234.140625 C 217.890625 233.296875 217.207031 232.617188 216.363281 232.617188 C 215.519531 232.617188 214.839844 233.296875 214.839844 234.140625 Z M 171.265625 215.042969 C 171.265625 215.882812 171.945312 216.566406 172.789062 216.566406 C 173.632812 216.566406 174.3125 215.886719 174.3125 215.042969 C 174.3125 214.199219 173.632812 213.519531 172.789062 213.519531 C 171.945312 213.519531 171.265625 214.199219 171.265625 215.042969 Z M 176.417969 204.273438 C 176.417969 205.113281 177.101562 205.796875 177.945312 205.796875 C 178.785156 205.796875 179.46875 205.117188 179.46875 204.273438 C 179.46875 203.429688 178.785156 202.75 177.945312 202.75 C 177.101562 202.75 176.417969 203.429688 176.417969 204.273438 Z M 157.988281 216.992188 C 157.988281 217.832031 158.667969 218.519531 159.511719 218.519531 C 160.355469 218.519531 161.039062 217.835938 161.039062 216.992188 C 161.039062 216.152344 160.355469 215.46875 159.511719 215.46875 C 158.667969 215.46875 157.988281 216.152344 157.988281 216.992188 Z M 165.015625 219.652344 C 165.015625 220.488281 165.699219 221.175781 166.539062 221.175781 C 167.382812 221.175781 168.066406 220.492188 168.066406 219.652344 C 168.066406 218.808594 167.382812 218.125 166.539062 218.125 C 165.699219 218.125 165.015625 218.808594 165.015625 219.652344 Z M 207.574219 224.257812 C 207.574219 225.097656 208.257812 225.785156 209.097656 225.785156 C 209.941406 225.785156 210.625 225.101562 210.625 224.257812 C 210.625 223.417969 209.941406 222.734375 209.097656 222.734375 C 208.257812 222.734375 207.574219 223.417969 207.574219 224.257812 Z M 220.195312 224.519531 C 220.195312 225.359375 220.878906 226.046875 221.722656 226.046875 C 222.566406 226.046875 223.246094 225.363281 223.246094 224.519531 C 223.246094 223.675781 222.566406 222.996094 221.722656 222.996094 C 220.878906 222.996094 220.195312 223.675781 220.195312 224.519531 Z M 216.859375 219.132812 C 216.859375 219.972656 217.539062 220.65625 218.382812 220.65625 C 219.226562 220.65625 219.90625 219.976562 219.90625 219.132812 C 219.90625 218.289062 219.226562 217.609375 218.382812 217.609375 C 217.539062 217.609375 216.859375 218.289062 216.859375 219.132812 Z M 210.59375 201.503906 C 210.59375 202.34375 211.273438 203.03125 212.117188 203.03125 C 212.960938 203.03125 213.640625 202.347656 213.640625 201.503906 C 213.640625 200.660156 212.960938 199.980469 212.117188 199.980469 C 211.273438 199.980469 210.59375 200.660156 210.59375 201.503906 Z M 201.046875 208.355469 C 201.046875 209.195312 201.726562 209.878906 202.570312 209.878906 C 203.414062 209.878906 204.09375 209.199219 204.09375 208.355469 C 204.09375 207.511719 203.414062 206.832031 202.570312 206.832031 C 201.726562 206.832031 201.046875 207.511719 201.046875 208.355469 Z M 198.761719 224.640625 C 198.761719 225.480469 199.441406 226.164062 200.285156 226.164062 C 201.125 226.164062 201.808594 225.484375 201.808594 224.640625 C 201.808594 223.796875 201.128906 223.113281 200.285156 223.113281 C 199.445312 223.113281 198.761719 223.796875 198.761719 224.640625 Z M 207.371094 218.136719 C 207.371094 218.976562 208.054688 219.664062 208.898438 219.664062 C 209.742188 219.664062 210.421875 218.980469 210.421875 218.136719 C 210.421875 217.296875 209.742188 216.613281 208.898438 216.613281 C 208.054688 216.613281 207.371094 217.296875 207.371094 218.136719 Z M 196.304688 215.148438 C 196.304688 215.988281 196.984375 216.671875 197.828125 216.671875 C 198.671875 216.671875 199.351562 215.992188 199.351562 215.148438 C 199.351562 214.304688 198.671875 213.625 197.828125 213.625 C 196.984375 213.625 196.304688 214.304688 196.304688 215.148438 Z M 184.878906 201.152344 C 184.878906 201.992188 185.5625 202.675781 186.40625 202.675781 C 187.246094 202.675781 187.929688 201.996094 187.929688 201.152344 C 187.929688 200.308594 187.246094 199.628906 186.40625 199.628906 C 185.5625 199.628906 184.878906 200.308594 184.878906 201.152344 Z M 206.023438 228.679688 C 206.023438 229.515625 206.703125 230.203125 207.546875 230.203125 C 208.390625 230.203125 209.070312 229.519531 209.070312 228.679688 C 209.070312 227.835938 208.390625 227.152344 207.546875 227.152344 C 206.703125 227.152344 206.023438 227.835938 206.023438 228.679688 Z M 231.207031 220.421875 C 231.207031 221.261719 231.890625 221.945312 232.730469 221.945312 C 233.574219 221.945312 234.257812 221.265625 234.257812 220.421875 C 234.257812 219.578125 233.574219 218.898438 232.730469 218.898438 C 231.890625 218.898438 231.207031 219.578125 231.207031 220.421875 Z M 200.898438 200.410156 C 200.898438 201.246094 201.582031 201.933594 202.425781 201.933594 C 203.265625 201.933594 203.949219 201.253906 203.949219 200.410156 C 203.949219 199.566406 203.265625 198.882812 202.425781 198.882812 C 201.582031 198.882812 200.898438 199.566406 200.898438 200.410156 Z M 184.707031 193.890625 C 184.707031 194.730469 185.386719 195.414062 186.230469 195.414062 C 187.074219 195.414062 187.753906 194.734375 187.753906 193.890625 C 187.753906 193.046875 187.074219 192.367188 186.230469 192.367188 C 185.386719 192.367188 184.707031 193.046875 184.707031 193.890625 Z M 189.800781 211.34375 C 189.800781 212.183594 190.484375 212.867188 191.324219 212.867188 C 192.167969 212.867188 192.851562 212.1875 192.851562 211.34375 C 192.851562 210.5 192.167969 209.820312 191.324219 209.820312 C 190.484375 209.820312 189.800781 210.5 189.800781 211.34375 Z M 167.015625 209.058594 C 167.015625 209.898438 167.695312 210.585938 168.539062 210.585938 C 169.382812 210.585938 170.066406 209.902344 170.066406 209.058594 C 170.066406 208.21875 169.382812 207.535156 168.539062 207.535156 C 167.695312 207.535156 167.015625 208.214844 167.015625 209.058594 Z M 164.703125 198.882812 C 164.703125 199.722656 165.382812 200.410156 166.226562 200.410156 C 167.070312 200.410156 167.753906 199.726562 167.753906 198.882812 C 167.753906 198.039062 167.070312 197.359375 166.226562 197.359375 C 165.382812 197.359375 164.703125 198.039062 164.703125 198.882812 Z M 181.308594 208.007812 C 181.308594 208.847656 181.988281 209.53125 182.832031 209.53125 C 183.675781 209.53125 184.359375 208.851562 184.359375 208.007812 C 184.359375 207.164062 183.675781 206.480469 182.832031 206.480469 C 181.988281 206.480469 181.308594 207.164062 181.308594 208.007812 Z M 192.820312 201.8125 C 192.820312 202.652344 193.5 203.339844 194.34375 203.339844 C 195.1875 203.339844 195.867188 202.65625 195.867188 201.8125 C 195.867188 200.972656 195.1875 200.289062 194.34375 200.289062 C 193.5 200.289062 192.820312 200.972656 192.820312 201.8125 Z M 160.019531 209.894531 C 160.019531 210.734375 160.699219 211.417969 161.542969 211.417969 C 162.386719 211.417969 163.070312 210.738281 163.070312 209.894531 C 163.070312 209.050781 162.386719 208.371094 161.542969 208.371094 C 160.699219 208.371094 160.019531 209.050781 160.019531 209.894531 Z M 268.695312 196.703125 C 268.695312 197.542969 269.375 198.226562 270.21875 198.226562 C 271.0625 198.226562 271.742188 197.546875 271.742188 196.703125 C 271.742188 195.859375 271.0625 195.179688 270.21875 195.179688 C 269.375 195.179688 268.695312 195.859375 268.695312 196.703125 Z M 257.917969 222.355469 C 257.917969 223.195312 258.597656 223.878906 259.441406 223.878906 C 260.285156 223.878906 260.964844 223.199219 260.964844 222.355469 C 260.964844 221.511719 260.285156 220.832031 259.441406 220.832031 C 258.597656 220.832031 257.917969 221.511719 257.917969 222.355469 Z M 220.929688 195.953125 C 220.929688 196.792969 221.609375 197.480469 222.453125 197.480469 C 223.296875 197.480469 223.976562 196.796875 223.976562 195.953125 C 223.976562 195.109375 223.296875 194.429688 222.453125 194.429688 C 221.609375 194.429688 220.929688 195.109375 220.929688 195.953125 Z M 208.980469 209.46875 C 208.980469 210.308594 209.660156 210.992188 210.503906 210.992188 C 211.347656 210.992188 212.027344 210.3125 212.027344 209.46875 C 212.027344 208.625 211.347656 207.941406 210.503906 207.941406 C 209.660156 207.941406 208.980469 208.625 208.980469 209.46875 Z M 208.980469 209.46875 " fill-opacity="1" fill-rule="nonzero"/></g><path fill="#0f1035" d="M 175.992188 115.003906 C 175.222656 115.003906 174.605469 114.386719 174.605469 113.617188 L 174.605469 57.164062 C 174.605469 56.394531 175.222656 55.777344 175.992188 55.777344 C 176.757812 55.777344 177.378906 56.394531 177.378906 57.164062 L 177.378906 113.617188 C 177.378906 114.386719 176.757812 115.003906 175.992188 115.003906 Z M 175.992188 115.003906 " fill-opacity="1" fill-rule="nonzero"/><path fill="#0f1035" d="M 180.683594 57.402344 C 180.683594 54.808594 178.578125 52.710938 175.992188 52.710938 C 173.402344 52.710938 171.300781 54.8125 171.300781 57.402344 C 171.300781 59.992188 173.402344 62.09375 175.992188 62.09375 C 178.578125 62.09375 180.683594 59.992188 180.683594 57.402344 Z M 180.683594 57.402344 " fill-opacity="1" fill-rule="nonzero"/><path fill="#0f1035" d="M 163.246094 116.609375 C 162.480469 116.609375 161.859375 115.988281 161.859375 115.222656 L 161.859375 81.4375 C 161.859375 80.671875 162.480469 80.050781 163.246094 80.050781 C 164.015625 80.050781 164.632812 80.671875 164.632812 81.4375 L 164.632812 115.222656 C 164.632812 115.988281 164.015625 116.609375 163.246094 116.609375 Z M 163.246094 116.609375 " fill-opacity="1" fill-rule="nonzero"/><path fill="#0f1035" d="M 167.9375 81.675781 C 167.9375 79.082031 165.835938 76.980469 163.246094 76.980469 C 160.660156 76.980469 158.554688 79.085938 158.554688 81.675781 C 158.554688 84.261719 160.660156 86.367188 163.246094 86.367188 C 165.835938 86.367188 167.9375 84.261719 167.9375 81.675781 Z M 167.9375 81.675781 " fill-opacity="1" fill-rule="nonzero"/><path fill="#0f1035" d="M 175.519531 55.027344 C 175.164062 55.027344 174.808594 54.894531 174.539062 54.621094 L 160.546875 40.628906 C 160.007812 40.089844 160.007812 39.210938 160.546875 38.667969 C 161.089844 38.128906 161.96875 38.128906 162.507812 38.667969 L 176.5 52.660156 C 177.039062 53.199219 177.039062 54.078125 176.5 54.621094 C 176.226562 54.894531 175.875 55.027344 175.519531 55.027344 Z M 175.519531 55.027344 " fill-opacity="1" fill-rule="nonzero"/><path fill="#0f1035" d="M 165.011719 36.496094 C 163.183594 34.667969 160.210938 34.667969 158.375 36.496094 C 156.546875 38.328125 156.546875 41.300781 158.375 43.132812 C 160.207031 44.964844 163.179688 44.964844 165.011719 43.132812 C 166.84375 41.304688 166.84375 38.332031 165.011719 36.496094 Z M 165.011719 36.496094 " fill-opacity="1" fill-rule="nonzero"/><path fill="#0f1035" d="M 161.617188 80.683594 C 161.257812 80.683594 160.902344 80.550781 160.636719 80.277344 L 151.507812 71.148438 C 150.964844 70.609375 150.964844 69.730469 151.507812 69.1875 C 152.046875 68.648438 152.925781 68.648438 153.464844 69.1875 L 162.59375 78.316406 C 163.136719 78.859375 163.136719 79.738281 162.59375 80.277344 C 162.324219 80.550781 161.972656 80.683594 161.617188 80.683594 Z M 161.617188 80.683594 " fill-opacity="1" fill-rule="nonzero"/><path fill="#0f1035" d="M 155.96875 67.015625 C 154.136719 65.1875 151.164062 65.1875 149.328125 67.015625 C 147.5 68.847656 147.5 71.820312 149.328125 73.65625 C 151.160156 75.484375 154.132812 75.484375 155.96875 73.65625 C 157.796875 71.824219 157.796875 68.851562 155.96875 67.015625 Z M 155.96875 67.015625 " fill-opacity="1" fill-rule="nonzero"/><path fill="#0f1035" d="M 80.714844 212.722656 L 22.847656 212.722656 C 22.082031 212.722656 21.460938 212.101562 21.460938 211.335938 C 21.460938 210.570312 22.082031 209.949219 22.847656 209.949219 L 80.71875 209.949219 C 81.484375 209.949219 82.105469 210.570312 82.105469 211.335938 C 82.105469 212.101562 81.484375 212.722656 80.71875 212.722656 Z M 80.714844 212.722656 " fill-opacity="1" fill-rule="nonzero"/><path fill="#0f1035" d="M 23.078125 206.644531 C 20.484375 206.644531 18.386719 208.746094 18.386719 211.335938 C 18.386719 213.925781 20.492188 216.027344 23.078125 216.027344 C 25.667969 216.027344 27.769531 213.925781 27.769531 211.335938 C 27.769531 208.746094 25.667969 206.644531 23.078125 206.644531 Z M 23.078125 206.644531 " fill-opacity="1" fill-rule="nonzero"/><path fill="#0f1035" d="M 79.691406 224.757812 L 28.371094 224.757812 C 27.605469 224.757812 26.984375 224.140625 26.984375 223.371094 C 26.984375 222.605469 27.605469 221.984375 28.371094 221.984375 L 79.691406 221.984375 C 80.457031 221.984375 81.078125 222.605469 81.078125 223.371094 C 81.078125 224.140625 80.457031 224.757812 79.691406 224.757812 Z M 79.691406 224.757812 " fill-opacity="1" fill-rule="nonzero"/><path fill="#0f1035" d="M 28.605469 218.679688 C 26.015625 218.679688 23.914062 220.785156 23.914062 223.371094 C 23.914062 225.960938 26.019531 228.0625 28.605469 228.0625 C 31.195312 228.0625 33.296875 225.960938 33.296875 223.371094 C 33.296875 220.785156 31.195312 218.679688 28.605469 218.679688 Z M 28.605469 218.679688 " fill-opacity="1" fill-rule="nonzero"/><path fill="#0f1035" d="M 80.398438 201.394531 L 25.34375 201.394531 C 24.578125 201.394531 23.957031 200.773438 23.957031 200.007812 C 23.957031 199.238281 24.578125 198.621094 25.34375 198.621094 L 80.402344 198.621094 C 81.171875 198.621094 81.789062 199.238281 81.789062 200.007812 C 81.789062 200.773438 81.171875 201.394531 80.402344 201.394531 Z M 80.398438 201.394531 " fill-opacity="1" fill-rule="nonzero"/><path fill="#0f1035" d="M 25.574219 195.316406 C 22.980469 195.316406 20.882812 197.417969 20.882812 200.007812 C 20.882812 202.59375 22.984375 204.699219 25.574219 204.699219 C 28.164062 204.699219 30.265625 202.59375 30.265625 200.007812 C 30.265625 197.417969 28.164062 195.316406 25.574219 195.316406 Z M 25.574219 195.316406 " fill-opacity="1" fill-rule="nonzero"/><path fill="#0f1035" d="M 75.085938 323.078125 C 74.730469 323.078125 74.375 322.945312 74.109375 322.671875 C 73.566406 322.128906 73.566406 321.253906 74.109375 320.710938 L 109.742188 285.078125 C 110.28125 284.539062 111.160156 284.539062 111.699219 285.078125 C 112.242188 285.621094 112.242188 286.496094 111.699219 287.039062 L 76.066406 322.671875 C 75.796875 322.945312 75.445312 323.078125 75.085938 323.078125 Z M 75.085938 323.078125 " fill-opacity="1" fill-rule="nonzero"/><path fill="#0f1035" d="M 71.933594 318.210938 C 70.105469 320.042969 70.105469 323.011719 71.933594 324.847656 C 73.765625 326.679688 76.738281 326.679688 78.574219 324.847656 C 80.40625 323.019531 80.402344 320.046875 78.574219 318.210938 C 76.742188 316.378906 73.769531 316.378906 71.933594 318.210938 Z M 71.933594 318.210938 " fill-opacity="1" fill-rule="nonzero"/><path fill="#0f1035" d="M 79.65625 336.644531 C 79.296875 336.644531 78.941406 336.511719 78.675781 336.238281 C 78.132812 335.695312 78.132812 334.820312 78.675781 334.277344 L 119.78125 293.171875 C 120.320312 292.632812 121.199219 292.632812 121.738281 293.171875 C 122.28125 293.714844 122.28125 294.589844 121.738281 295.132812 L 80.632812 336.238281 C 80.363281 336.511719 80.011719 336.644531 79.65625 336.644531 Z M 79.65625 336.644531 " fill-opacity="1" fill-rule="nonzero"/><path fill="#0f1035" d="M 76.507812 331.773438 C 74.675781 333.601562 74.675781 336.574219 76.507812 338.410156 C 78.335938 340.246094 81.308594 340.242188 83.144531 338.410156 C 84.980469 336.578125 84.976562 333.609375 83.144531 331.773438 C 81.3125 329.9375 78.34375 329.941406 76.507812 331.773438 Z M 76.507812 331.773438 " fill-opacity="1" fill-rule="nonzero"/><path fill="#0f1035" d="M 107.957031 321.824219 C 107.601562 321.824219 107.246094 321.691406 106.976562 321.417969 C 106.4375 320.878906 106.4375 320 106.976562 319.457031 L 125.445312 300.988281 C 125.988281 300.449219 126.867188 300.449219 127.40625 300.988281 C 127.949219 301.53125 127.949219 302.40625 127.40625 302.949219 L 108.9375 321.417969 C 108.664062 321.691406 108.3125 321.824219 107.957031 321.824219 Z M 107.957031 321.824219 " fill-opacity="1" fill-rule="nonzero"/><path fill="#0f1035" d="M 104.804688 316.957031 C 102.972656 318.789062 102.972656 321.761719 104.804688 323.597656 C 106.632812 325.425781 109.605469 325.425781 111.441406 323.597656 C 113.277344 321.765625 113.273438 318.792969 111.441406 316.957031 C 109.609375 315.128906 106.640625 315.128906 104.804688 316.957031 Z M 104.804688 316.957031 " fill-opacity="1" fill-rule="nonzero"/><path fill="#0f1035" d="M 100.226562 158.535156 C 99.871094 158.535156 99.515625 158.402344 99.25 158.128906 L 52.828125 111.710938 C 52.285156 111.167969 52.285156 110.289062 52.828125 109.75 C 53.367188 109.207031 54.246094 109.207031 54.785156 109.75 L 101.207031 156.171875 C 101.75 156.710938 101.75 157.589844 101.207031 158.128906 C 100.933594 158.402344 100.582031 158.535156 100.226562 158.535156 Z M 100.226562 158.535156 " fill-opacity="1" fill-rule="nonzero"/><path fill="#0f1035" d="M 57.292969 107.578125 C 55.460938 105.746094 52.488281 105.746094 50.65625 107.578125 C 48.824219 109.40625 48.824219 112.378906 50.65625 114.214844 C 52.484375 116.042969 55.457031 116.042969 57.292969 114.214844 C 59.121094 112.382812 59.121094 109.410156 57.292969 107.578125 Z M 57.292969 107.578125 " fill-opacity="1" fill-rule="nonzero"/><path fill="#0f1035" d="M 105.890625 152.164062 C 105.535156 152.164062 105.179688 152.027344 104.910156 151.757812 L 59.890625 106.734375 C 59.347656 106.195312 59.347656 105.316406 59.890625 104.777344 C 60.429688 104.234375 61.308594 104.234375 61.851562 104.777344 L 106.871094 149.796875 C 107.410156 150.335938 107.410156 151.214844 106.871094 151.757812 C 106.597656 152.027344 106.246094 152.164062 105.890625 152.164062 Z M 105.890625 152.164062 " fill-opacity="1" fill-rule="nonzero"/><path fill="#0f1035" d="M 64.355469 102.601562 C 62.523438 100.773438 59.550781 100.773438 57.71875 102.601562 C 55.886719 104.433594 55.886719 107.40625 57.71875 109.242188 C 59.546875 111.070312 62.519531 111.070312 64.355469 109.242188 C 66.183594 107.410156 66.183594 104.4375 64.355469 102.601562 Z M 64.355469 102.601562 " fill-opacity="1" fill-rule="nonzero"/><path fill="#0f1035" d="M 111.558594 146.496094 C 111.199219 146.496094 110.84375 146.363281 110.578125 146.089844 L 80.878906 116.390625 C 80.339844 115.851562 80.339844 114.972656 80.878906 114.429688 C 81.421875 113.890625 82.296875 113.890625 82.839844 114.429688 L 112.535156 144.128906 C 113.078125 144.671875 113.078125 145.546875 112.535156 146.089844 C 112.265625 146.363281 111.914062 146.496094 111.558594 146.496094 Z M 111.558594 146.496094 " fill-opacity="1" fill-rule="nonzero"/><path fill="#0f1035" d="M 85.34375 112.265625 C 83.515625 110.433594 80.542969 110.433594 78.707031 112.265625 C 76.871094 114.09375 76.875 117.066406 78.707031 118.902344 C 80.539062 120.730469 83.507812 120.730469 85.34375 118.902344 C 87.179688 117.070312 87.175781 114.097656 85.34375 112.265625 Z M 85.34375 112.265625 " fill-opacity="1" fill-rule="nonzero"/><path fill="#0f1035" d="M 80.816406 114.398438 C 80.605469 114.398438 80.394531 114.351562 80.195312 114.25 C 79.511719 113.910156 79.234375 113.078125 79.574219 112.394531 L 86.550781 98.441406 C 86.894531 97.757812 87.726562 97.480469 88.410156 97.824219 C 89.09375 98.164062 89.371094 98.996094 89.027344 99.683594 L 82.054688 113.632812 C 81.808594 114.117188 81.324219 114.398438 80.808594 114.398438 Z M 80.816406 114.398438 " fill-opacity="1" fill-rule="nonzero"/><path fill="#0f1035" d="M 91.878906 101.371094 C 93.039062 99.054688 92.097656 96.234375 89.78125 95.074219 C 87.464844 93.914062 84.648438 94.855469 83.488281 97.171875 C 82.328125 99.488281 83.269531 102.308594 85.585938 103.46875 C 87.902344 104.628906 90.71875 103.683594 91.878906 101.371094 Z M 91.878906 101.371094 " fill-opacity="1" fill-rule="nonzero"/><path fill="#0f1035" d="M 60.0625 104.039062 C 59.859375 104.039062 59.648438 103.996094 59.457031 103.902344 C 58.765625 103.566406 58.480469 102.738281 58.816406 102.046875 L 66.304688 86.699219 C 66.644531 86.007812 67.46875 85.722656 68.160156 86.058594 C 68.847656 86.398438 69.132812 87.226562 68.796875 87.914062 L 61.308594 103.265625 C 61.070312 103.757812 60.574219 104.046875 60.0625 104.046875 Z M 60.0625 104.039062 " fill-opacity="1" fill-rule="nonzero"/><path fill="#0f1035" d="M 71.664062 89.574219 C 72.800781 87.242188 71.832031 84.433594 69.503906 83.300781 C 67.175781 82.164062 64.363281 83.128906 63.230469 85.460938 C 62.09375 87.789062 63.0625 90.597656 65.390625 91.730469 C 67.71875 92.863281 70.53125 91.902344 71.664062 89.574219 Z M 71.664062 89.574219 " fill-opacity="1" fill-rule="nonzero"/><path fill="#0f1035" d="M 49.707031 112.019531 C 49.65625 112.019531 49.601562 112.019531 49.550781 112.007812 L 28.957031 109.679688 C 28.195312 109.59375 27.648438 108.90625 27.738281 108.144531 C 27.824219 107.382812 28.511719 106.835938 29.273438 106.925781 L 49.863281 109.253906 C 50.628906 109.34375 51.171875 110.027344 51.085938 110.789062 C 51.007812 111.496094 50.40625 112.019531 49.707031 112.019531 Z M 49.707031 112.019531 " fill-opacity="1" fill-rule="nonzero"/><path fill="#0f1035" d="M 29.878906 103.660156 C 27.304688 103.371094 24.976562 105.21875 24.6875 107.796875 C 24.394531 110.375 26.246094 112.699219 28.824219 112.988281 C 31.398438 113.28125 33.722656 111.433594 34.015625 108.851562 C 34.304688 106.273438 32.457031 103.953125 29.882812 103.660156 Z M 29.878906 103.660156 " fill-opacity="1" fill-rule="nonzero"/><path fill="#0f1035" d="M 23.230469 201.628906 C 22.867188 201.628906 22.496094 201.484375 22.222656 201.195312 C 21.695312 200.640625 21.71875 199.761719 22.273438 199.234375 L 37.449219 184.835938 C 38.003906 184.308594 38.882812 184.332031 39.410156 184.886719 C 39.9375 185.441406 39.914062 186.320312 39.359375 186.847656 L 24.183594 201.246094 C 23.914062 201.5 23.574219 201.625 23.230469 201.625 Z M 23.230469 201.628906 " fill-opacity="1" fill-rule="nonzero"/><path fill="#0f1035" d="M 41.46875 189.410156 C 43.351562 187.625 43.429688 184.65625 41.644531 182.777344 C 39.863281 180.894531 36.894531 180.816406 35.011719 182.601562 C 33.132812 184.382812 33.054688 187.351562 34.835938 189.234375 C 36.621094 191.113281 39.589844 191.191406 41.46875 189.410156 Z M 41.46875 189.410156 " fill-opacity="1" fill-rule="nonzero"/><path fill="#0f1035" d="M 5.140625 222.867188 C 4.675781 222.867188 4.226562 222.636719 3.960938 222.21875 C 3.554688 221.566406 3.753906 220.710938 4.398438 220.308594 L 19.5 210.871094 C 20.148438 210.460938 21.007812 210.660156 21.410156 211.308594 C 21.8125 211.957031 21.617188 212.816406 20.972656 213.21875 L 5.871094 222.65625 C 5.644531 222.800781 5.390625 222.867188 5.136719 222.867188 Z M 5.140625 222.867188 " fill-opacity="1" fill-rule="nonzero"/><path fill="#0f1035" d="M 2.851562 217.378906 C 0.65625 218.75 -0.015625 221.644531 1.359375 223.84375 C 2.730469 226.042969 5.625 226.710938 7.824219 225.335938 C 10.019531 223.964844 10.691406 221.070312 9.320312 218.871094 C 7.945312 216.671875 5.050781 216.003906 2.851562 217.378906 Z M 2.851562 217.378906 " fill-opacity="1" fill-rule="nonzero"/><path fill="#0f1035" d="M 39.761719 236.433594 C 39.425781 236.433594 39.089844 236.316406 38.828125 236.070312 L 25.59375 223.972656 C 25.027344 223.457031 24.988281 222.578125 25.503906 222.011719 C 26.023438 221.449219 26.902344 221.40625 27.464844 221.925781 L 40.699219 234.023438 C 41.261719 234.539062 41.304688 235.417969 40.785156 235.980469 C 40.515625 236.28125 40.140625 236.433594 39.765625 236.433594 Z M 39.761719 236.433594 " fill-opacity="1" fill-rule="nonzero"/><path fill="#0f1035" d="M 36.417969 238.351562 C 38.332031 240.101562 41.300781 239.972656 43.046875 238.058594 C 44.792969 236.144531 44.660156 233.175781 42.75 231.429688 C 40.835938 229.683594 37.871094 229.816406 36.121094 231.726562 C 34.375 233.632812 34.507812 236.605469 36.417969 238.351562 Z M 36.417969 238.351562 " fill-opacity="1" fill-rule="nonzero"/><path fill="#0f1035" d="M 74.273438 323.832031 C 73.640625 323.832031 73.066406 323.390625 72.925781 322.75 L 69.65625 308.21875 C 69.492188 307.46875 69.957031 306.730469 70.707031 306.5625 C 71.453125 306.398438 72.195312 306.863281 72.367188 307.613281 L 75.632812 322.144531 C 75.800781 322.894531 75.332031 323.632812 74.585938 323.800781 C 74.480469 323.824219 74.378906 323.832031 74.277344 323.832031 Z M 74.273438 323.832031 " fill-opacity="1" fill-rule="nonzero"/><path fill="#0f1035" d="M 75.632812 307.113281 C 75.066406 304.585938 72.554688 302.996094 70.027344 303.5625 C 67.5 304.132812 65.90625 306.640625 66.476562 309.167969 C 67.046875 311.699219 69.554688 313.289062 72.082031 312.71875 C 74.613281 312.152344 76.203125 309.640625 75.632812 307.113281 Z M 75.632812 307.113281 " fill-opacity="1" fill-rule="nonzero"/><path fill="#0f1035" d="M 89.34375 343.734375 C 89.164062 343.734375 88.976562 343.699219 88.796875 343.625 L 78.023438 339.007812 C 77.320312 338.707031 76.992188 337.886719 77.292969 337.183594 C 77.59375 336.484375 78.40625 336.15625 79.113281 336.453125 L 89.886719 341.074219 C 90.589844 341.371094 90.917969 342.191406 90.617188 342.894531 C 90.390625 343.421875 89.882812 343.734375 89.34375 343.734375 Z M 89.34375 343.734375 " fill-opacity="1" fill-rule="nonzero"/><path fill="#0f1035" d="M 87.28125 346.566406 C 89.660156 347.589844 92.421875 346.484375 93.441406 344.105469 C 94.464844 341.722656 93.359375 338.964844 90.980469 337.941406 C 88.597656 336.921875 85.839844 338.027344 84.816406 340.40625 C 83.796875 342.789062 84.902344 345.546875 87.28125 346.566406 Z M 87.28125 346.566406 " fill-opacity="1" fill-rule="nonzero"/><path fill="#0f1035" d="M 120.519531 335.34375 C 120.164062 335.34375 119.808594 335.210938 119.539062 334.9375 L 105.695312 321.09375 C 105.15625 320.554688 105.15625 319.675781 105.695312 319.136719 C 106.238281 318.59375 107.113281 318.59375 107.65625 319.136719 L 121.5 332.980469 C 122.039062 333.519531 122.039062 334.398438 121.5 334.9375 C 121.226562 335.210938 120.875 335.34375 120.519531 335.34375 Z M 120.519531 335.34375 " fill-opacity="1" fill-rule="nonzero"/><path fill="#0f1035" d="M 117.035156 337.109375 C 118.863281 338.941406 121.835938 338.941406 123.671875 337.109375 C 125.507812 335.28125 125.503906 332.308594 123.671875 330.472656 C 121.839844 328.640625 118.871094 328.644531 117.035156 330.472656 C 115.199219 332.304688 115.203125 335.277344 117.035156 337.109375 Z M 117.035156 337.109375 " fill-opacity="1" fill-rule="nonzero"/><g clip-path="url(#ded9248567)"><path fill="#0f1035" d="M 183.429688 319.148438 C 155.855469 319.148438 129.941406 308.410156 110.441406 288.921875 C 90.945312 269.421875 80.214844 243.507812 80.214844 215.933594 C 80.214844 188.363281 90.953125 162.445312 110.441406 142.949219 C 129.933594 123.453125 155.855469 112.722656 183.429688 112.722656 C 211 112.722656 236.917969 123.457031 256.414062 142.949219 C 275.910156 162.445312 286.640625 188.363281 286.640625 215.933594 C 286.640625 243.507812 275.90625 269.421875 256.414062 288.921875 C 236.921875 308.417969 211 319.148438 183.429688 319.148438 Z M 183.429688 117.34375 C 129.066406 117.34375 84.835938 161.574219 84.835938 215.933594 C 84.835938 270.296875 129.066406 314.527344 183.429688 314.527344 C 237.789062 314.527344 282.019531 270.300781 282.019531 215.933594 C 282.019531 161.570312 237.792969 117.34375 183.429688 117.34375 Z M 183.429688 117.34375 " fill-opacity="1" fill-rule="nonzero"/></g><g clip-path="url(#6acf862352)"><g clip-path="url(#9ace6f0f4d)"><path stroke-linecap="butt" transform="matrix(0.75, 0, 0, 0.75, 83.451553, 117.015453)" fill="none" stroke-linejoin="miter" d="M 132.778146 0.000229179 C 59.450016 0.000229179 0.00209544 59.2919 0.00209544 132.437738 C 0.00209544 205.578368 59.450016 264.875247 132.778146 264.875247 C 206.111484 264.875247 265.559405 205.578368 265.559405 132.437738 C 265.559405 59.2919 206.111484 0.000229179 132.778146 0.000229179 Z M 132.778146 0.000229179 " stroke="#0f1035" stroke-width="26" stroke-opacity="1" stroke-miterlimit="4"/></g></g><path fill="#38b6ff" d="M 182.863281 310.171875 C 163.667969 310.171875 145.21875 304.410156 129.503906 293.515625 C 121.933594 288.269531 115.183594 281.945312 109.445312 274.734375 C 103.65625 267.453125 99 259.394531 95.605469 250.777344 C 91.308594 239.84375 89.117188 228.289062 89.117188 216.429688 C 89.117188 214.386719 89.1875 212.320312 89.320312 210.289062 C 90.09375 198.308594 93.113281 186.753906 98.285156 175.964844 C 103.296875 165.492188 110.152344 156.136719 118.636719 148.148438 C 136.085938 131.726562 158.890625 122.683594 182.863281 122.683594 C 190.003906 122.683594 197.128906 123.496094 204.027344 125.082031 C 210.734375 126.625 217.28125 128.925781 223.492188 131.917969 C 230.214844 135.152344 236.554688 139.199219 242.328125 143.953125 C 248.074219 148.671875 253.261719 154.078125 257.738281 160.007812 C 263.746094 167.960938 268.410156 176.757812 271.613281 186.160156 C 274.925781 195.875 276.609375 206.058594 276.609375 216.417969 C 276.609375 223.710938 275.769531 230.972656 274.113281 238.003906 C 272.5 244.839844 270.113281 251.503906 267.007812 257.808594 C 262.910156 266.117188 257.605469 273.773438 251.25 280.550781 C 244.902344 287.316406 237.617188 293.089844 229.597656 297.703125 C 222.636719 301.714844 215.191406 304.808594 207.457031 306.902344 C 199.476562 309.074219 191.199219 310.171875 182.863281 310.171875 Z M 182.863281 124.429688 C 134.5 124.429688 94.175781 162.195312 91.054688 210.402344 C 90.921875 212.398438 90.863281 214.421875 90.863281 216.429688 C 90.863281 228.0625 93.007812 239.40625 97.230469 250.132812 C 111.179688 285.546875 144.789062 308.429688 182.863281 308.429688 C 198.980469 308.429688 214.832031 304.199219 228.714844 296.203125 C 244.628906 287.039062 257.328125 273.496094 265.4375 257.039062 C 271.691406 244.351562 274.863281 230.6875 274.863281 216.429688 C 274.863281 196.257812 268.464844 177.117188 256.34375 161.0625 C 247.515625 149.367188 235.890625 139.828125 222.726562 133.488281 C 210.246094 127.480469 196.832031 124.429688 182.863281 124.429688 Z M 182.863281 124.429688 " fill-opacity="1" fill-rule="nonzero"/><g clip-path="url(#17db7693f1)"><path fill="#38b6ff" d="M 182.863281 315.839844 C 162.511719 315.839844 142.941406 309.738281 126.277344 298.175781 C 118.246094 292.609375 111.09375 285.90625 105.007812 278.246094 C 98.867188 270.53125 93.933594 261.984375 90.332031 252.84375 C 85.761719 241.253906 83.449219 229.003906 83.449219 216.429688 C 83.449219 214.265625 83.519531 212.078125 83.660156 209.921875 C 84.480469 197.207031 87.679688 184.964844 93.164062 173.523438 C 98.484375 162.414062 105.75 152.492188 114.757812 144.023438 C 133.253906 126.597656 157.441406 117.015625 182.863281 117.015625 C 190.441406 117.015625 197.992188 117.871094 205.300781 119.5625 C 212.417969 121.203125 219.359375 123.644531 225.941406 126.816406 C 233.066406 130.253906 239.789062 134.542969 245.921875 139.585938 C 252.015625 144.589844 257.511719 150.320312 262.261719 156.613281 C 268.628906 165.054688 273.582031 174.386719 276.984375 184.347656 C 280.496094 194.652344 282.277344 205.449219 282.277344 216.4375 C 282.277344 224.171875 281.386719 231.871094 279.625 239.328125 C 277.917969 246.574219 275.378906 253.640625 272.082031 260.328125 C 267.738281 269.144531 262.113281 277.261719 255.367188 284.449219 C 248.632812 291.625 240.90625 297.746094 232.40625 302.640625 C 225.027344 306.894531 217.125 310.171875 208.921875 312.398438 C 200.480469 314.683594 191.707031 315.839844 182.863281 315.839844 Z M 182.863281 118.757812 C 131.515625 118.757812 88.707031 158.847656 85.394531 210.035156 C 85.253906 212.15625 85.1875 214.308594 85.1875 216.4375 C 85.1875 228.792969 87.460938 240.828125 91.945312 252.21875 C 106.769531 289.8125 142.453125 314.097656 182.863281 314.097656 C 199.972656 314.097656 216.804688 309.605469 231.550781 301.121094 C 248.441406 291.390625 261.921875 277.007812 270.53125 259.542969 C 277.175781 246.070312 280.542969 231.558594 280.542969 216.429688 C 280.542969 195.019531 273.738281 174.691406 260.886719 157.652344 C 251.519531 145.234375 239.171875 135.109375 225.203125 128.378906 C 211.929688 121.996094 197.6875 118.757812 182.863281 118.757812 Z M 182.863281 118.757812 " fill-opacity="1" fill-rule="nonzero"/></g><g clip-path="url(#d4d6b1111e)"><path fill="#38b6ff" d="M 182.863281 321.074219 L 182.863281 319.328125 C 183.039062 319.328125 183.210938 319.328125 183.386719 319.328125 L 183.394531 321.074219 C 183.210938 321.074219 183.039062 321.074219 182.863281 321.074219 Z M 182.863281 321.074219 " fill-opacity="1" fill-rule="nonzero"/></g><g clip-path="url(#3591f1b6fa)"><path fill="#38b6ff" d="M 184.449219 321.066406 L 184.425781 319.320312 C 184.773438 319.3125 185.121094 319.3125 185.460938 319.304688 L 185.503906 321.046875 C 185.148438 321.046875 184.800781 321.054688 184.449219 321.066406 Z M 186.5625 321.011719 L 186.5 319.269531 C 186.847656 319.261719 187.1875 319.242188 187.539062 319.226562 L 187.617188 320.96875 C 187.265625 320.988281 186.910156 320.996094 186.5625 321.011719 Z M 188.671875 320.917969 L 188.574219 319.171875 C 188.925781 319.15625 189.265625 319.128906 189.613281 319.113281 L 189.726562 320.855469 C 189.378906 320.875 189.027344 320.898438 188.671875 320.917969 Z M 190.78125 320.777344 L 190.652344 319.042969 C 191 319.015625 191.339844 318.988281 191.6875 318.964844 L 191.835938 320.699219 C 191.488281 320.726562 191.128906 320.75 190.78125 320.777344 Z M 192.890625 320.601562 L 192.726562 318.867188 C 193.074219 318.832031 193.414062 318.796875 193.765625 318.761719 L 193.945312 320.5 C 193.589844 320.535156 193.242188 320.566406 192.890625 320.601562 Z M 194.992188 320.375 L 194.792969 318.640625 C 195.140625 318.597656 195.480469 318.5625 195.820312 318.519531 L 196.039062 320.246094 C 195.691406 320.296875 195.34375 320.339844 194.992188 320.375 Z M 197.085938 320.113281 L 196.851562 318.386719 C 197.191406 318.34375 197.539062 318.292969 197.878906 318.238281 L 198.132812 319.964844 C 197.785156 320.019531 197.433594 320.070312 197.085938 320.113281 Z M 199.179688 319.808594 L 198.910156 318.082031 C 199.25 318.03125 199.589844 317.976562 199.9375 317.917969 L 200.226562 319.636719 C 199.878906 319.695312 199.527344 319.757812 199.179688 319.808594 Z M 201.261719 319.460938 L 200.957031 317.742188 C 201.296875 317.683594 201.636719 317.621094 201.980469 317.558594 L 202.300781 319.277344 C 201.960938 319.339844 201.613281 319.398438 201.261719 319.460938 Z M 203.339844 319.066406 L 203 317.359375 C 203.339844 317.289062 203.679688 317.21875 204.019531 317.148438 L 204.375 318.859375 C 204.035156 318.9375 203.6875 319.007812 203.339844 319.066406 Z M 205.414062 318.640625 L 205.039062 316.941406 C 205.378906 316.863281 205.71875 316.792969 206.050781 316.714844 L 206.445312 318.414062 C 206.101562 318.484375 205.753906 318.5625 205.414062 318.640625 Z M 207.472656 318.171875 L 207.0625 316.476562 C 207.402344 316.398438 207.734375 316.3125 208.074219 316.226562 L 208.5 317.917969 C 208.152344 317.996094 207.8125 318.082031 207.472656 318.171875 Z M 209.523438 317.648438 L 209.078125 315.964844 C 209.410156 315.875 209.75 315.789062 210.078125 315.695312 L 210.542969 317.375 C 210.203125 317.472656 209.863281 317.558594 209.523438 317.648438 Z M 211.554688 317.089844 L 211.074219 315.414062 C 211.40625 315.320312 211.738281 315.222656 212.066406 315.125 L 212.566406 316.800781 C 212.234375 316.898438 211.894531 316.992188 211.554688 317.089844 Z M 213.585938 316.496094 L 213.070312 314.832031 C 213.402344 314.726562 213.734375 314.628906 214.066406 314.523438 L 214.597656 316.191406 C 214.257812 316.285156 213.917969 316.390625 213.585938 316.496094 Z M 215.601562 315.851562 L 215.050781 314.195312 C 215.382812 314.089844 215.703125 313.976562 216.035156 313.863281 L 216.59375 315.511719 C 216.261719 315.632812 215.929688 315.746094 215.601562 315.851562 Z M 217.597656 315.171875 L 217.019531 313.523438 C 217.34375 313.410156 217.675781 313.285156 218 313.171875 L 218.589844 314.8125 C 218.257812 314.933594 217.929688 315.058594 217.597656 315.171875 Z M 219.585938 314.457031 L 218.976562 312.824219 C 219.296875 312.703125 219.621094 312.582031 219.941406 312.457031 L 220.570312 314.089844 C 220.238281 314.203125 219.90625 314.324219 219.585938 314.457031 Z M 221.554688 313.6875 L 220.910156 312.066406 C 221.234375 311.933594 221.554688 311.804688 221.871094 311.671875 L 222.53125 313.285156 C 222.210938 313.425781 221.878906 313.558594 221.554688 313.6875 Z M 223.507812 312.894531 L 222.828125 311.289062 C 223.152344 311.160156 223.464844 311.019531 223.78125 310.878906 L 224.476562 312.476562 C 224.15625 312.613281 223.832031 312.753906 223.507812 312.894531 Z M 225.445312 312.046875 L 224.738281 310.453125 C 225.054688 310.3125 225.367188 310.164062 225.679688 310.023438 L 226.40625 311.613281 C 226.082031 311.761719 225.769531 311.910156 225.445312 312.046875 Z M 227.363281 311.167969 L 226.621094 309.589844 C 226.9375 309.441406 227.25 309.292969 227.554688 309.144531 L 228.3125 310.714844 C 228 310.871094 227.679688 311.019531 227.363281 311.167969 Z M 229.265625 310.25 L 228.488281 308.691406 C 228.804688 308.535156 229.109375 308.386719 229.414062 308.230469 L 230.207031 309.78125 C 229.894531 309.9375 229.578125 310.09375 229.265625 310.25 Z M 231.148438 309.292969 L 230.347656 307.75 C 230.652344 307.59375 230.957031 307.425781 231.261719 307.261719 L 232.082031 308.796875 C 231.769531 308.96875 231.460938 309.136719 231.148438 309.292969 Z M 233.007812 308.296875 L 232.167969 306.773438 C 232.472656 306.605469 232.777344 306.441406 233.074219 306.265625 L 233.929688 307.785156 C 233.625 307.957031 233.320312 308.132812 233.007812 308.296875 Z M 234.855469 307.269531 L 233.984375 305.761719 L 234.15625 305.664062 C 234.402344 305.527344 234.644531 305.386719 234.882812 305.246094 L 235.761719 306.746094 C 235.515625 306.894531 235.273438 307.035156 235.019531 307.171875 Z M 236.667969 306.195312 L 235.769531 304.707031 C 236.066406 304.53125 236.363281 304.347656 236.660156 304.164062 L 237.574219 305.648438 C 237.269531 305.839844 236.972656 306.023438 236.667969 306.195312 Z M 238.472656 305.097656 L 237.550781 303.625 C 237.847656 303.441406 238.132812 303.257812 238.421875 303.066406 L 239.363281 304.53125 C 239.066406 304.722656 238.769531 304.90625 238.472656 305.097656 Z M 240.242188 303.957031 L 239.285156 302.5 C 239.574219 302.308594 239.859375 302.117188 240.148438 301.925781 L 241.117188 303.371094 C 240.835938 303.5625 240.539062 303.765625 240.242188 303.957031 Z M 241.996094 302.777344 L 241.011719 301.339844 C 241.300781 301.148438 241.578125 300.945312 241.867188 300.746094 L 242.867188 302.175781 C 242.582031 302.378906 242.285156 302.578125 241.996094 302.777344 Z M 243.722656 301.566406 L 242.710938 300.144531 C 242.992188 299.945312 243.269531 299.742188 243.550781 299.535156 L 244.578125 300.9375 C 244.300781 301.15625 244.011719 301.355469 243.722656 301.566406 Z M 245.433594 300.320312 L 244.386719 298.925781 C 244.664062 298.714844 244.9375 298.503906 245.214844 298.296875 L 246.269531 299.683594 C 245.992188 299.902344 245.710938 300.109375 245.433594 300.320312 Z M 247.105469 299.039062 L 246.035156 297.660156 C 246.304688 297.449219 246.574219 297.230469 246.855469 297.015625 L 247.933594 298.382812 C 247.664062 298.609375 247.386719 298.820312 247.105469 299.039062 Z M 248.765625 297.730469 L 247.664062 296.378906 C 247.933594 296.160156 248.195312 295.941406 248.46875 295.722656 L 249.582031 297.066406 C 249.304688 297.285156 249.035156 297.503906 248.765625 297.730469 Z M 250.386719 296.378906 L 249.261719 295.042969 C 249.523438 294.816406 249.785156 294.597656 250.046875 294.371094 L 251.1875 295.6875 C 250.917969 295.925781 250.65625 296.152344 250.386719 296.378906 Z M 251.980469 295 L 250.832031 293.691406 C 251.09375 293.464844 251.34375 293.230469 251.605469 293.003906 L 252.773438 294.300781 C 252.515625 294.539062 252.242188 294.773438 251.980469 295 Z M 253.550781 293.597656 L 252.375 292.3125 C 252.628906 292.078125 252.878906 291.84375 253.132812 291.609375 L 254.328125 292.878906 C 254.074219 293.117188 253.8125 293.351562 253.550781 293.597656 Z M 255.09375 292.148438 L 253.890625 290.882812 C 254.144531 290.648438 254.386719 290.402344 254.640625 290.160156 L 255.863281 291.40625 C 255.601562 291.660156 255.347656 291.902344 255.09375 292.148438 Z M 256.605469 290.675781 L 255.375 289.4375 C 255.617188 289.191406 255.863281 288.949219 256.105469 288.703125 L 257.34375 289.925781 C 257.101562 290.1875 256.855469 290.429688 256.605469 290.675781 Z M 258.085938 289.175781 L 256.832031 287.960938 C 257.074219 287.710938 257.308594 287.464844 257.546875 287.210938 L 258.808594 288.414062 C 258.574219 288.667969 258.332031 288.921875 258.085938 289.175781 Z M 259.542969 287.648438 L 258.261719 286.460938 C 258.496094 286.210938 258.730469 285.957031 258.96875 285.695312 L 260.257812 286.871094 C 260.011719 287.132812 259.777344 287.386719 259.542969 287.648438 Z M 260.964844 286.085938 L 259.664062 284.929688 C 259.890625 284.667969 260.125 284.414062 260.351562 284.152344 L 261.671875 285.304688 C 261.425781 285.5625 261.191406 285.824219 260.964844 286.085938 Z M 262.351562 284.5 L 261.023438 283.367188 C 261.25 283.105469 261.46875 282.84375 261.695312 282.574219 L 263.03125 283.699219 C 262.804688 283.960938 262.578125 284.230469 262.351562 284.5 Z M 263.703125 282.886719 L 262.359375 281.78125 C 262.578125 281.507812 262.796875 281.246094 263.011719 280.976562 L 264.375 282.078125 C 264.148438 282.335938 263.929688 282.609375 263.703125 282.886719 Z M 265.027344 281.238281 L 263.660156 280.15625 C 263.875 279.886719 264.085938 279.617188 264.296875 279.339844 L 265.671875 280.402344 C 265.464844 280.691406 265.246094 280.96875 265.027344 281.238281 Z M 266.316406 279.574219 L 264.929688 278.519531 C 265.140625 278.238281 265.351562 277.96875 265.550781 277.691406 L 266.953125 278.726562 C 266.746094 279.015625 266.535156 279.292969 266.316406 279.574219 Z M 267.574219 277.882812 L 266.160156 276.851562 C 266.363281 276.574219 266.5625 276.292969 266.761719 276.007812 L 268.183594 277.019531 C 267.992188 277.316406 267.78125 277.59375 267.574219 277.882812 Z M 268.792969 276.164062 L 267.363281 275.167969 C 267.566406 274.882812 267.757812 274.601562 267.949219 274.316406 L 269.386719 275.300781 C 269.195312 275.589844 269.003906 275.875 268.792969 276.164062 Z M 269.988281 274.417969 L 268.542969 273.453125 C 268.734375 273.164062 268.925781 272.875 269.109375 272.589844 L 270.566406 273.539062 C 270.375 273.835938 270.179688 274.125 269.988281 274.417969 Z M 271.140625 272.648438 L 269.667969 271.707031 C 269.851562 271.417969 270.03125 271.125 270.214844 270.828125 L 271.699219 271.75 C 271.515625 272.054688 271.324219 272.351562 271.140625 272.648438 Z M 272.257812 270.863281 L 270.765625 269.953125 C 270.949219 269.660156 271.125 269.363281 271.296875 269.066406 L 272.796875 269.953125 C 272.621094 270.261719 272.441406 270.566406 272.257812 270.863281 Z M 273.339844 269.054688 L 271.828125 268.175781 C 272.003906 267.878906 272.179688 267.574219 272.34375 267.277344 L 273.863281 268.140625 C 273.6875 268.445312 273.511719 268.75 273.339844 269.054688 Z M 274.375 267.226562 L 272.851562 266.378906 C 273.015625 266.074219 273.179688 265.777344 273.347656 265.472656 L 274.882812 266.300781 C 274.714844 266.605469 274.550781 266.910156 274.375 267.226562 Z M 275.386719 265.367188 L 273.84375 264.546875 C 274.007812 264.242188 274.167969 263.9375 274.324219 263.632812 L 275.875 264.433594 C 275.710938 264.75 275.554688 265.0625 275.386719 265.367188 Z M 276.355469 263.492188 L 274.792969 262.707031 C 274.933594 262.421875 275.082031 262.140625 275.222656 261.851562 L 275.257812 261.785156 L 276.828125 262.550781 L 276.792969 262.628906 C 276.644531 262.917969 276.503906 263.207031 276.355469 263.492188 Z M 277.289062 261.601562 L 275.71875 260.851562 C 275.867188 260.535156 276.015625 260.222656 276.164062 259.917969 L 277.742188 260.660156 C 277.585938 260.972656 277.4375 261.285156 277.289062 261.601562 Z M 278.179688 259.691406 L 276.589844 258.96875 C 276.730469 258.652344 276.878906 258.339844 277.019531 258.023438 L 278.613281 258.730469 C 278.464844 259.054688 278.316406 259.375 278.179688 259.691406 Z M 279.03125 257.761719 L 277.429688 257.074219 C 277.566406 256.761719 277.699219 256.4375 277.828125 256.125 L 279.433594 256.796875 C 279.304688 257.117188 279.171875 257.441406 279.03125 257.761719 Z M 279.84375 255.820312 L 278.230469 255.164062 C 278.359375 254.84375 278.492188 254.527344 278.613281 254.207031 L 280.234375 254.84375 C 280.105469 255.164062 279.972656 255.496094 279.84375 255.820312 Z M 280.621094 253.855469 L 278.988281 253.230469 C 279.109375 252.90625 279.234375 252.582031 279.355469 252.261719 L 280.984375 252.871094 C 280.863281 253.203125 280.742188 253.535156 280.621094 253.855469 Z M 281.351562 251.886719 L 279.710938 251.292969 C 279.824219 250.96875 279.949219 250.640625 280.0625 250.316406 L 281.710938 250.890625 C 281.585938 251.222656 281.472656 251.554688 281.351562 251.886719 Z M 282.050781 249.890625 L 280.394531 249.332031 C 280.507812 249 280.609375 248.675781 280.714844 248.34375 L 282.371094 248.886719 C 282.269531 249.226562 282.15625 249.558594 282.050781 249.890625 Z M 282.695312 247.890625 L 281.03125 247.367188 C 281.132812 247.039062 281.238281 246.707031 281.335938 246.375 L 283 246.878906 C 282.90625 247.21875 282.808594 247.550781 282.695312 247.890625 Z M 283.3125 245.867188 L 281.640625 245.378906 C 281.734375 245.050781 281.832031 244.71875 281.929688 244.386719 L 283.609375 244.855469 C 283.507812 245.199219 283.410156 245.539062 283.3125 245.867188 Z M 283.882812 243.847656 L 282.199219 243.390625 C 282.285156 243.0625 282.371094 242.730469 282.460938 242.390625 L 284.152344 242.824219 C 284.0625 243.164062 283.976562 243.503906 283.882812 243.847656 Z M 284.414062 241.804688 L 282.722656 241.386719 C 282.808594 241.054688 282.886719 240.714844 282.964844 240.382812 L 284.664062 240.785156 C 284.578125 241.117188 284.5 241.464844 284.414062 241.804688 Z M 284.902344 239.753906 L 283.199219 239.371094 C 283.28125 239.03125 283.347656 238.699219 283.425781 238.359375 L 285.128906 238.726562 C 285.058594 239.066406 284.980469 239.40625 284.902344 239.753906 Z M 285.347656 237.6875 L 283.636719 237.339844 C 283.707031 237 283.777344 236.660156 283.835938 236.328125 L 285.546875 236.660156 C 285.484375 237.007812 285.414062 237.347656 285.347656 237.6875 Z M 285.757812 235.621094 L 284.039062 235.308594 C 284.097656 234.96875 284.160156 234.628906 284.222656 234.289062 L 285.9375 234.585938 C 285.878906 234.933594 285.816406 235.28125 285.757812 235.621094 Z M 286.113281 233.546875 L 284.394531 233.269531 C 284.449219 232.925781 284.507812 232.585938 284.5625 232.246094 L 286.289062 232.507812 C 286.226562 232.859375 286.175781 233.207031 286.113281 233.546875 Z M 286.4375 231.472656 L 284.710938 231.226562 C 284.761719 230.886719 284.804688 230.546875 284.847656 230.199219 L 286.574219 230.425781 C 286.53125 230.773438 286.488281 231.121094 286.4375 231.472656 Z M 286.714844 229.378906 L 284.988281 229.160156 C 285.03125 228.820312 285.074219 228.472656 285.109375 228.132812 L 286.847656 228.332031 C 286.800781 228.679688 286.757812 229.03125 286.714844 229.378906 Z M 286.949219 227.285156 L 285.214844 227.101562 C 285.25 226.761719 285.285156 226.414062 285.320312 226.074219 L 287.054688 226.238281 C 287.019531 226.589844 286.984375 226.9375 286.949219 227.285156 Z M 287.152344 225.191406 L 285.414062 225.042969 C 285.441406 224.703125 285.46875 224.355469 285.496094 224.015625 L 287.230469 224.144531 C 287.203125 224.496094 287.175781 224.84375 287.152344 225.191406 Z M 287.300781 223.089844 L 285.554688 222.976562 C 285.574219 222.636719 285.597656 222.289062 285.617188 221.941406 L 287.359375 222.035156 C 287.34375 222.394531 287.324219 222.742188 287.300781 223.089844 Z M 287.414062 220.988281 L 285.667969 220.910156 C 285.6875 220.570312 285.695312 220.222656 285.703125 219.875 L 287.449219 219.933594 C 287.4375 220.292969 287.429688 220.640625 287.414062 220.988281 Z M 287.484375 218.886719 L 285.738281 218.84375 C 285.746094 218.496094 285.757812 218.15625 285.757812 217.804688 L 287.5 217.832031 C 287.5 218.179688 287.492188 218.53125 287.484375 218.886719 Z M 287.507812 216.777344 L 285.765625 216.769531 C 285.765625 216.65625 285.765625 216.542969 285.765625 216.429688 C 285.765625 216.191406 285.765625 215.964844 285.765625 215.730469 L 287.507812 215.722656 C 287.507812 215.957031 287.507812 216.191406 287.507812 216.429688 C 287.507812 216.542969 287.507812 216.664062 287.507812 216.777344 Z M 285.757812 214.691406 C 285.746094 214.34375 285.738281 214.003906 285.730469 213.65625 L 287.472656 213.613281 C 287.484375 213.960938 287.492188 214.316406 287.5 214.667969 Z M 285.757812 214.691406 " fill-opacity="1" fill-rule="nonzero"/></g><g clip-path="url(#1424cfe18d)"><path fill="#38b6ff" d="M 285.695312 212.617188 C 285.6875 212.445312 285.6875 212.269531 285.675781 212.101562 L 287.421875 212.035156 C 287.429688 212.207031 287.4375 212.382812 287.4375 212.558594 Z M 285.695312 212.617188 " fill-opacity="1" fill-rule="nonzero"/></g><path fill="#38b6ff" d="M 121.871094 154.113281 L 120.652344 152.867188 C 120.773438 152.742188 120.90625 152.621094 121.027344 152.5 L 122.238281 153.753906 C 122.117188 153.867188 121.996094 153.988281 121.871094 154.113281 Z M 121.871094 154.113281 " fill-opacity="1" fill-rule="nonzero"/><path fill="#38b6ff" d="M 96.511719 204.21875 L 94.785156 203.976562 C 94.839844 203.636719 94.882812 203.285156 94.933594 202.945312 L 96.660156 203.207031 C 96.609375 203.546875 96.558594 203.886719 96.511719 204.21875 Z M 96.820312 202.207031 L 95.101562 201.925781 C 95.152344 201.585938 95.214844 201.238281 95.273438 200.898438 L 96.992188 201.203125 C 96.933594 201.535156 96.871094 201.867188 96.820312 202.207031 Z M 97.175781 200.191406 L 95.457031 199.867188 C 95.519531 199.527344 95.589844 199.1875 95.660156 198.847656 L 97.367188 199.1875 C 97.296875 199.527344 97.238281 199.859375 97.175781 200.191406 Z M 97.578125 198.195312 L 95.867188 197.828125 C 95.9375 197.488281 96.015625 197.148438 96.09375 196.808594 L 97.796875 197.191406 C 97.71875 197.53125 97.648438 197.863281 97.578125 198.195312 Z M 98.023438 196.207031 L 96.320312 195.804688 C 96.398438 195.472656 96.488281 195.132812 96.566406 194.792969 L 98.257812 195.21875 C 98.179688 195.542969 98.101562 195.875 98.023438 196.207031 Z M 98.519531 194.226562 L 96.835938 193.78125 C 96.921875 193.449219 97.011719 193.109375 97.105469 192.777344 L 98.789062 193.242188 C 98.695312 193.5625 98.605469 193.894531 98.519531 194.226562 Z M 99.058594 192.253906 L 97.386719 191.777344 C 97.480469 191.445312 97.578125 191.105469 97.683594 190.773438 L 99.355469 191.277344 C 99.25 191.601562 99.15625 191.933594 99.058594 192.253906 Z M 99.644531 190.300781 L 97.980469 189.777344 C 98.082031 189.449219 98.1875 189.117188 98.292969 188.785156 L 99.949219 189.324219 C 99.851562 189.65625 99.75 189.980469 99.644531 190.300781 Z M 100.28125 188.367188 L 98.632812 187.808594 C 98.746094 187.484375 98.859375 187.152344 98.972656 186.824219 L 100.621094 187.40625 C 100.5 187.722656 100.386719 188.042969 100.28125 188.367188 Z M 100.960938 186.4375 L 99.320312 185.835938 C 99.445312 185.515625 99.566406 185.183594 99.6875 184.859375 L 101.320312 185.480469 C 101.195312 185.800781 101.074219 186.125 100.960938 186.4375 Z M 101.683594 184.527344 L 100.0625 183.894531 C 100.195312 183.570312 100.316406 183.246094 100.445312 182.925781 L 102.058594 183.578125 C 101.9375 183.894531 101.808594 184.214844 101.683594 184.527344 Z M 102.453125 182.636719 L 100.847656 181.957031 C 100.976562 181.644531 101.117188 181.320312 101.257812 180.996094 L 102.851562 181.695312 C 102.722656 182.007812 102.582031 182.332031 102.453125 182.636719 Z M 103.273438 180.769531 L 101.683594 180.054688 C 101.824219 179.742188 101.972656 179.417969 102.121094 179.105469 L 103.699219 179.835938 C 103.550781 180.144531 103.402344 180.457031 103.273438 180.769531 Z M 104.125 178.914062 L 102.546875 178.164062 C 102.695312 177.847656 102.851562 177.535156 103 177.222656 L 104.5625 177.988281 C 104.421875 178.304688 104.273438 178.609375 104.125 178.914062 Z M 105.023438 177.082031 L 103.472656 176.296875 C 103.628906 175.992188 103.785156 175.679688 103.953125 175.371094 L 105.496094 176.175781 C 105.339844 176.472656 105.179688 176.777344 105.023438 177.082031 Z M 105.976562 175.269531 L 104.441406 174.441406 C 104.605469 174.132812 104.773438 173.828125 104.9375 173.523438 L 106.464844 174.371094 C 106.296875 174.667969 106.132812 174.972656 105.976562 175.269531 Z M 106.960938 173.480469 L 105.441406 172.617188 C 105.609375 172.320312 105.792969 172.015625 105.964844 171.710938 L 107.476562 172.589844 C 107.292969 172.886719 107.125 173.183594 106.960938 173.480469 Z M 107.988281 171.71875 L 106.488281 170.820312 C 106.664062 170.523438 106.847656 170.226562 107.03125 169.929688 L 108.511719 170.847656 C 108.339844 171.132812 108.164062 171.421875 107.988281 171.71875 Z M 109.054688 169.976562 L 107.578125 169.042969 C 107.761719 168.753906 107.953125 168.457031 108.136719 168.160156 L 109.601562 169.113281 C 109.417969 169.398438 109.238281 169.6875 109.054688 169.976562 Z M 110.167969 168.257812 L 108.714844 167.289062 C 108.90625 167 109.097656 166.714844 109.296875 166.425781 L 110.738281 167.410156 C 110.542969 167.691406 110.351562 167.976562 110.167969 168.257812 Z M 111.3125 166.574219 L 109.882812 165.578125 C 110.082031 165.300781 110.28125 165.011719 110.484375 164.726562 L 111.90625 165.738281 C 111.703125 166.015625 111.511719 166.292969 111.3125 166.574219 Z M 112.507812 164.90625 L 111.101562 163.878906 C 111.304688 163.601562 111.511719 163.320312 111.722656 163.042969 L 113.117188 164.089844 C 112.90625 164.359375 112.707031 164.636719 112.507812 164.90625 Z M 113.738281 163.277344 L 112.359375 162.214844 C 112.566406 161.941406 112.785156 161.664062 112.996094 161.394531 L 114.363281 162.476562 C 114.15625 162.738281 113.9375 163.007812 113.738281 163.277344 Z M 115 161.671875 L 113.640625 160.574219 C 113.859375 160.304688 114.078125 160.035156 114.304688 159.761719 L 115.644531 160.871094 C 115.429688 161.140625 115.210938 161.410156 115 161.671875 Z M 116.300781 160.09375 L 114.964844 158.96875 C 115.191406 158.707031 115.417969 158.4375 115.644531 158.175781 L 116.964844 159.320312 C 116.746094 159.578125 116.519531 159.839844 116.300781 160.09375 Z M 117.644531 158.550781 L 116.335938 157.390625 C 116.5625 157.128906 116.796875 156.875 117.03125 156.613281 L 118.324219 157.792969 C 118.097656 158.046875 117.871094 158.296875 117.644531 158.550781 Z M 119.011719 157.042969 L 117.738281 155.855469 C 117.972656 155.601562 118.21875 155.351562 118.453125 155.097656 L 119.71875 156.300781 C 119.484375 156.546875 119.246094 156.789062 119.011719 157.042969 Z M 120.425781 155.558594 L 119.179688 154.339844 C 119.421875 154.09375 119.667969 153.84375 119.910156 153.597656 L 121.148438 154.828125 C 120.90625 155.070312 120.660156 155.316406 120.425781 155.558594 Z M 120.425781 155.558594 " fill-opacity="1" fill-rule="nonzero"/><path fill="#38b6ff" d="M 96.304688 205.816406 L 94.570312 205.605469 C 94.585938 205.433594 94.613281 205.257812 94.628906 205.082031 L 96.355469 205.300781 C 96.347656 205.46875 96.332031 205.640625 96.304688 205.816406 Z M 96.304688 205.816406 " fill-opacity="1" fill-rule="nonzero"/><path fill="#38b6ff" d="M 100.046875 246.085938 C 98.796875 247.507812 97.457031 249.085938 96.425781 250.445312 C 92.265625 239.914062 89.992188 228.4375 89.992188 216.429688 C 89.992188 214.386719 90.058594 212.355469 90.191406 210.351562 L 94.988281 212.964844 C 94.945312 214.117188 94.917969 215.269531 94.917969 216.429688 C 94.917969 226.839844 96.722656 236.824219 100.046875 246.085938 Z M 100.046875 246.085938 " fill-opacity="1" fill-rule="nonzero"/><path fill="#38b6ff" d="M 266.222656 257.433594 C 258.058594 274 245.101562 287.78125 229.160156 296.960938 L 227.871094 292.007812 C 242.328125 283.382812 254.101562 270.730469 261.636719 255.59375 Z M 266.222656 257.433594 " fill-opacity="1" fill-rule="nonzero"/><path fill="#38b6ff" d="M 257.039062 160.539062 L 254.300781 165.125 C 246 153.589844 234.976562 144.144531 222.175781 137.734375 L 223.109375 132.703125 C 236.527344 139.164062 248.152344 148.757812 257.039062 160.539062 Z M 257.039062 160.539062 " fill-opacity="1" fill-rule="nonzero"/></svg>